<?xml version="1.0" standalone="no"?>
<!DOCTYPE svg PUBLIC "-//W3C//DTD SVG 20010904//EN"
 "http://www.w3.org/TR/2001/REC-SVG-20010904/DTD/svg10.dtd">
<svg version="1.0" xmlns="http://www.w3.org/2000/svg"
 width="934.000000pt" height="937.000000pt" viewBox="0 0 934.000000 937.000000"
 preserveAspectRatio="xMidYMid meet">

<g transform="translate(0.000000,937.000000) scale(0.100000,-0.100000)"
fill="#000000" stroke="none">
<path d="M3057 9318 c-70 -140 -106 -281 -116 -457 l-6 -113 -77 -23 c-43 -12
-109 -38 -148 -58 -38 -21 -71 -37 -74 -37 -2 0 -2 9 1 20 10 38 -5 19 -64
-82 -64 -109 -72 -128 -79 -168 -2 -14 -6 -34 -9 -45 -2 -11 -12 -51 -21 -88
-11 -44 -22 -70 -33 -74 -49 -15 -79 -30 -123 -61 -51 -35 -87 -37 -72 -4 4 9
9 55 10 102 2 47 5 109 9 138 5 51 -6 69 -20 35 -4 -10 -11 -92 -15 -183 l-7
-165 -34 -55 c-30 -49 -34 -64 -37 -136 -3 -67 1 -97 27 -183 22 -75 28 -108
21 -121 -6 -10 -28 -74 -50 -142 -22 -68 -45 -131 -50 -140 -6 -10 -10 -29
-10 -43 0 -17 -4 -24 -11 -19 -6 3 -15 0 -20 -7 -12 -19 -11 -79 1 -79 6 0 10
13 10 29 0 17 4 32 8 35 14 8 0 -58 -15 -76 -10 -11 -13 -26 -9 -42 5 -21 -4
-74 -30 -166 -5 -18 -4 -22 5 -14 6 5 17 32 25 60 8 27 24 76 36 109 12 33 26
83 30 110 14 88 31 169 39 190 5 11 21 60 37 109 62 192 77 221 137 270 52 42
144 86 195 93 29 4 39 0 49 -15 10 -16 5 -29 -28 -83 -39 -64 -47 -89 -30 -89
10 0 51 53 51 65 0 4 9 20 21 36 l20 29 39 -26 c32 -21 47 -25 87 -21 56 5
188 55 244 91 21 14 46 26 54 26 15 0 161 74 179 90 11 10 -116 133 -169 164
-22 13 -61 30 -87 37 -27 7 -48 18 -48 24 0 17 175 184 268 255 45 35 82 67
82 72 0 5 -6 5 -12 1 -7 -4 -39 -25 -72 -47 -32 -21 -63 -39 -70 -41 -6 -1
-33 -12 -59 -23 -27 -12 -53 -22 -58 -22 -5 0 -49 -13 -97 -29 -146 -49 -160
-52 -167 -31 -7 21 2 62 21 99 8 14 14 31 14 38 0 6 6 18 13 25 26 29 40 62
28 66 -7 2 -16 15 -21 28 -7 17 -17 24 -37 24 -34 0 -139 -51 -158 -77 -20
-26 -18 -8 4 35 10 20 39 51 64 69 69 48 213 102 308 114 46 6 91 13 99 16 8
3 78 7 156 8 132 3 146 5 217 35 93 39 113 57 55 52 -38 -4 -41 -3 -35 18 4
14 -18 95 -58 214 -35 105 -67 217 -71 249 -6 56 -7 57 -37 57 -31 0 -87 -15
-120 -32 -15 -7 -20 -5 -24 11 -3 13 -14 21 -28 21 -16 0 -28 -13 -48 -52z
m-307 -776 c0 -17 -35 -41 -64 -44 -39 -4 -44 17 -9 36 31 17 73 21 73 8z
m-194 -136 c-8 -20 -12 -36 -9 -36 3 0 23 14 44 31 27 21 45 28 59 24 11 -3
20 -11 20 -16 0 -19 -80 -116 -107 -129 -16 -8 -36 -21 -46 -29 -21 -18 -24
-15 -28 29 -2 22 4 45 14 60 9 13 17 33 17 44 0 19 39 70 47 62 2 -2 -3 -20
-11 -40z m491 -59 c-27 -23 -83 -75 -124 -114 -73 -71 -76 -73 -126 -73 -64 0
-158 -22 -191 -44 -14 -9 -30 -16 -36 -16 -18 0 -10 38 9 43 11 3 35 26 53 51
23 33 42 49 68 56 183 49 236 67 305 100 44 21 82 39 85 39 3 0 -17 -19 -43
-42z m-506 -119 c-5 -14 -9 -45 -9 -70 0 -53 -17 -122 -35 -140 -7 -7 -16 -21
-20 -30 -7 -20 -110 -102 -153 -123 -47 -22 -58 -59 -23 -70 23 -8 16 -19 -22
-39 -26 -13 -33 -25 -48 -83 -7 -24 -16 -43 -21 -43 -21 0 -44 126 -43 234 0
53 6 79 23 110 26 47 111 124 167 151 21 10 58 27 81 39 24 11 57 38 74 59 33
42 44 43 29 5z"/>
<path d="M4720 9094 c-82 -7 -214 -38 -285 -66 -38 -16 -59 -26 -45 -23 14 3
41 9 60 12 19 4 40 12 47 19 7 7 36 15 65 19 29 3 79 11 111 17 125 23 430 -4
532 -47 17 -7 40 -16 53 -20 55 -16 187 -119 220 -170 12 -19 12 -18 6 5 -4
14 -18 39 -32 55 -31 39 -140 115 -163 115 -10 0 -20 4 -23 9 -9 14 -125 49
-203 62 -72 12 -267 19 -343 13z"/>
<path d="M2537 9063 c-4 -7 -16 -36 -27 -65 -42 -117 -100 -235 -138 -280 -7
-9 -12 -25 -10 -35 7 -39 131 179 172 304 17 52 19 101 3 76z"/>
<path d="M2576 9023 c4 -16 13 -39 20 -53 l13 -25 1 27 c0 31 -19 78 -32 78
-5 0 -5 -12 -2 -27z"/>
<path d="M4300 8990 l-25 -8 25 0 c14 0 34 3 45 8 l20 9 -20 -1 c-11 0 -31 -4
-45 -8z"/>
<path d="M4170 8950 c-18 -12 -2 -12 25 0 13 6 15 9 5 9 -8 0 -22 -4 -30 -9z"/>
<path d="M1860 8925 c0 -9 62 -36 68 -31 3 3 3 8 0 11 -7 7 -68 25 -68 20z"/>
<path d="M1973 8885 c5 -13 3 -16 -8 -11 -31 12 -12 -18 64 -102 77 -84 168
-203 206 -269 10 -18 22 -30 27 -27 12 8 58 101 58 118 0 8 -6 21 -12 28 -7 7
-21 30 -32 50 -43 85 -167 198 -231 211 -16 4 -41 10 -54 13 -21 6 -23 4 -18
-11z"/>
<path d="M3601 8880 c-1 -14 -10 -41 -21 -60 -10 -19 -24 -45 -29 -58 -20 -43
-86 -113 -121 -129 -36 -16 -27 -30 13 -19 27 7 89 61 80 70 -4 3 6 19 20 34
31 32 70 134 64 166 -4 18 -4 18 -6 -4z"/>
<path d="M2632 8795 c0 -16 2 -22 5 -12 2 9 2 23 0 30 -3 6 -5 -1 -5 -18z"/>
<path d="M5525 8811 c-13 -6 22 -10 110 -13 128 -4 251 -20 290 -38 11 -5 40
-15 65 -21 60 -17 58 -16 130 -47 19 -8 37 -16 40 -16 27 -7 170 -89 232 -132
213 -150 461 -428 613 -685 60 -102 79 -131 101 -151 31 -29 163 -163 198
-202 25 -28 101 -113 151 -171 15 -16 62 -77 106 -135 43 -58 82 -109 87 -115
8 -10 103 -154 187 -285 27 -41 50 -81 51 -89 2 -8 6 -17 11 -20 4 -3 17 -23
28 -43 11 -21 23 -38 28 -38 5 0 -5 25 -21 55 -17 30 -26 52 -21 49 19 -12 8
26 -16 52 -16 17 -25 39 -25 58 0 17 -7 42 -16 54 -8 12 -14 30 -12 40 3 9
-17 61 -44 114 -26 54 -48 110 -48 125 0 23 -35 102 -148 333 -12 25 -40 70
-63 100 -53 72 -99 163 -99 195 0 18 -5 25 -20 25 -11 0 -26 12 -34 28 -8 15
-35 52 -60 82 -25 30 -46 62 -46 72 0 23 -39 85 -75 119 -68 66 -123 121 -165
170 -25 28 -61 59 -82 70 -20 10 -53 30 -74 44 -35 24 -44 25 -171 25 l-135 0
-93 75 c-52 41 -97 75 -100 75 -4 0 -30 15 -58 34 -67 44 -209 109 -317 146
-140 47 -215 62 -340 66 -69 2 -134 0 -145 -5z"/>
<path d="M3763 8800 c-13 -5 -23 -12 -23 -15 0 -9 16 -5 36 10 22 16 19 18
-13 5z"/>
<path d="M3705 8770 c-3 -6 1 -7 9 -4 18 7 21 14 7 14 -6 0 -13 -4 -16 -10z"/>
<path d="M4339 8739 c-135 -13 -539 -115 -619 -156 -41 -21 -11 -15 88 18 267
87 513 128 762 129 46 0 61 3 50 10 -18 11 -158 11 -281 -1z"/>
<path d="M2642 8720 c0 -14 2 -19 5 -12 2 6 2 18 0 25 -3 6 -5 1 -5 -13z"/>
<path d="M4708 8676 c-105 -59 -268 -202 -268 -235 0 -11 11 -4 33 21 17 20
66 65 107 100 68 57 99 77 184 122 18 9 22 15 13 19 -7 3 -39 -9 -69 -27z"/>
<path d="M3550 8690 c-9 -6 -10 -10 -3 -10 6 0 15 5 18 10 8 12 4 12 -15 0z"/>
<path d="M5751 8496 c3 -3 46 -26 95 -51 115 -58 179 -105 283 -207 205 -203
396 -513 518 -838 62 -167 130 -393 148 -500 3 -19 10 -53 15 -75 5 -22 12
-62 15 -90 4 -27 8 -57 11 -67 3 -9 9 -51 13 -93 12 -105 35 -128 27 -27 -3
40 -8 85 -11 100 -4 15 -8 38 -11 50 -11 53 19 9 94 -138 125 -247 209 -385
358 -589 34 -48 180 -199 227 -236 21 -16 63 -44 93 -61 30 -17 65 -41 77 -52
25 -24 43 -29 31 -11 -5 9 1 10 22 5 16 -4 49 -11 74 -15 l45 -7 -60 -14 c-72
-16 -220 -17 -330 0 -74 11 -197 44 -220 59 -5 4 -32 8 -59 9 -58 3 -210 69
-232 101 -8 11 -21 21 -28 21 -10 0 -17 30 -25 103 -31 270 -59 447 -108 672
-14 66 -28 135 -30 153 -3 17 -8 32 -12 32 -4 0 -8 8 -9 18 -2 27 -31 109 -31
92 0 -8 8 -49 19 -90 26 -97 65 -288 84 -415 32 -200 36 -232 46 -365 6 -74
13 -157 16 -185 8 -81 4 -258 -6 -271 -9 -10 -22 -58 -71 -267 -6 -27 -8 -51
-5 -54 3 -4 6 1 6 10 0 36 21 55 54 47 17 -4 40 -12 51 -18 11 -6 80 -41 154
-77 137 -68 221 -119 221 -135 0 -5 6 -7 14 -4 10 4 15 -6 18 -33 11 -94 -90
-112 -377 -67 -107 17 -108 17 -100 4 8 -13 68 -28 136 -35 66 -7 86 -13 108
-30 72 -59 81 -69 81 -90 0 -29 16 -41 24 -19 3 9 6 20 6 24 0 15 -61 80 -75
80 -8 0 -16 4 -20 9 -3 6 28 10 76 10 44 0 86 4 92 9 7 5 22 13 35 16 l22 7 0
-143 c-1 -421 -87 -774 -266 -1088 -21 -36 -40 -67 -44 -70 -11 -8 -30 -47
-30 -61 0 -10 3 -10 12 -1 20 20 28 14 28 -20 0 -33 0 -33 -47 -31 -51 2 -74
-13 -85 -55 -6 -23 7 -31 15 -9 4 9 6 9 6 0 1 -7 13 -13 27 -13 21 0 23 -2 12
-13 -24 -23 -94 -67 -106 -67 -17 0 -15 8 9 42 24 33 20 45 -10 28 -14 -7 -21
-7 -21 0 0 5 5 10 10 10 6 0 10 7 10 15 0 8 4 15 10 15 5 0 9 3 8 8 -1 4 14
41 34 82 56 116 95 229 124 362 25 108 29 470 9 647 -15 124 -25 176 -25 123
0 -24 -16 -38 -23 -20 -4 10 -6 10 -6 0 -1 -17 -128 -195 -180 -252 -22 -25
-41 -54 -41 -64 0 -11 -10 -33 -23 -50 -12 -17 -31 -48 -42 -70 -22 -43 -132
-157 -251 -260 -43 -39 -84 -75 -89 -82 -6 -6 -26 -22 -45 -35 -72 -49 -110
-82 -110 -95 0 -15 -12 -24 -41 -29 -12 -2 -33 -12 -46 -22 -14 -10 -36 -25
-50 -34 -39 -26 -133 -113 -133 -123 0 -10 -30 -35 -43 -36 -4 0 4 12 17 27
113 130 204 253 187 253 -5 0 -14 -6 -18 -14 -39 -66 -209 -246 -368 -391 -85
-76 -95 -83 -95 -63 -1 7 -7 -1 -14 -18 -8 -17 -38 -48 -67 -69 -69 -49 -76
-55 -62 -55 6 0 34 16 63 36 58 40 81 41 51 2 -12 -14 -21 -31 -21 -36 0 -6
-3 -12 -8 -14 -12 -5 -84 -109 -79 -115 3 -2 15 11 28 29 13 18 38 49 56 68
18 19 36 42 39 52 11 37 29 16 38 -45 1 -9 10 -24 19 -35 9 -10 17 -28 17 -39
0 -19 65 -113 89 -127 5 -4 13 -21 17 -38 3 -18 12 -37 19 -43 7 -5 24 -32 38
-58 21 -40 23 -52 14 -77 -8 -20 -8 -38 0 -62 6 -18 16 -46 21 -63 10 -29 30
-99 51 -181 6 -23 11 -58 11 -78 0 -21 4 -45 9 -55 5 -9 11 -74 12 -144 1 -70
5 -127 9 -127 4 0 10 -10 13 -23 6 -22 6 -22 -10 -2 -15 20 -15 19 -8 -4 5
-16 4 -21 -4 -17 -7 5 -8 1 -4 -9 4 -12 8 -13 13 -5 13 21 21 -20 14 -72 -6
-46 -7 -48 -21 -28 -9 12 -13 34 -11 51 3 19 0 29 -8 29 -9 0 -11 -6 -7 -17 7
-19 -102 71 -146 120 -50 55 -136 138 -153 148 -32 17 -19 -8 20 -40 20 -18
42 -35 47 -40 29 -24 202 -217 215 -240 8 -14 18 -27 23 -29 4 -2 7 -9 7 -17
0 -7 7 -18 15 -25 20 -17 19 -27 -4 -35 -33 -10 -15 -35 19 -25 24 7 29 4 39
-17 18 -38 60 -28 89 22 16 29 21 33 17 15 -15 -66 -11 -85 33 -150 24 -36 62
-83 83 -106 35 -36 38 -42 24 -54 -22 -18 -19 -30 9 -30 18 0 25 6 28 23 4 26
21 26 28 0 3 -10 11 -19 18 -21 8 -1 11 2 7 8 -4 6 4 10 19 10 14 0 26 5 26
10 0 6 9 10 19 10 11 0 26 7 35 15 9 9 33 15 60 15 44 0 46 -1 46 -30 0 -32
19 -80 32 -80 17 0 7 -29 -12 -35 -11 -3 -20 -11 -20 -17 0 -6 -3 -8 -6 -5 -4
4 -19 -2 -34 -13 -16 -11 -31 -20 -35 -20 -11 0 -55 -49 -55 -61 0 -5 -8 -9
-18 -9 -9 0 -23 -9 -30 -20 -10 -17 -10 -20 3 -20 8 0 15 5 15 10 0 6 5 10 10
10 6 0 33 18 61 40 28 22 54 40 59 40 4 0 24 14 45 30 21 17 41 30 44 30 4 0
17 -33 30 -73 13 -39 28 -82 33 -94 14 -29 6 -38 -55 -66 -67 -32 -92 -51 -83
-65 7 -11 86 26 114 55 7 7 20 13 29 13 18 0 16 -2 -54 -85 -24 -27 -43 -56
-43 -63 0 -7 -30 -27 -67 -44 -38 -16 -86 -38 -108 -48 -23 -10 -53 -22 -68
-25 -15 -4 -27 -11 -27 -15 0 -4 -13 -13 -30 -19 -19 -6 -30 -17 -30 -29 0
-34 -25 -45 -90 -39 -33 3 -60 1 -60 -3 0 -12 51 -21 104 -19 25 2 49 0 52 -4
4 -3 10 -36 13 -72 5 -43 13 -69 24 -77 9 -7 25 -28 34 -45 26 -48 105 -141
126 -148 9 -4 17 -11 17 -17 0 -6 10 -21 23 -33 31 -31 66 -75 61 -75 -3 0 20
-30 51 -67 31 -38 63 -75 70 -84 7 -9 19 -21 27 -25 7 -5 21 -21 31 -37 l17
-27 265 0 c146 0 265 2 265 4 0 16 -139 363 -214 535 -25 58 -44 106 -42 108
2 3 16 -13 32 -34 15 -22 42 -50 60 -63 17 -14 30 -28 28 -31 -7 -11 237 -246
282 -272 8 -4 14 -15 14 -24 0 -9 3 -13 6 -10 4 4 20 -5 36 -18 16 -14 34 -25
39 -25 6 0 7 -5 4 -10 -4 -6 -3 -9 2 -8 4 1 22 -5 38 -15 17 -9 26 -16 21 -17
-11 0 82 -62 117 -78 15 -7 38 -12 50 -11 12 0 16 3 10 6 -7 2 -13 16 -13 29
0 16 -6 24 -17 24 -14 0 -15 2 -4 9 11 7 11 9 0 13 -8 3 -11 8 -8 12 4 4 24 0
44 -8 33 -14 36 -14 25 -1 -7 8 -19 15 -27 15 -26 0 -187 80 -213 106 -48 47
-131 114 -142 114 -6 0 -9 2 -6 5 8 8 -49 63 -73 70 -11 4 -18 9 -15 12 7 8
-56 73 -65 67 -5 -3 -9 1 -9 8 0 8 -13 28 -30 46 -16 18 -42 49 -57 70 -16 20
-37 47 -48 59 -37 41 -44 51 -91 130 -25 43 -51 81 -57 85 -7 4 -8 8 -3 8 5 0
1 9 -9 20 -26 29 -13 51 27 45 26 -4 29 -3 13 4 -36 17 -93 13 -113 -9 -18
-19 -19 -19 -34 -3 -9 10 -23 43 -33 73 -9 30 -28 64 -42 76 l-24 21 29 31
c17 18 34 32 40 32 22 0 30 88 10 108 -9 9 -10 15 -2 20 20 14 25 42 6 42 -13
0 -14 2 -4 8 9 6 0 13 -26 21 -34 12 -43 11 -66 -4 -31 -20 -30 -39 2 -43 12
-2 22 -8 22 -14 0 -11 -71 -1 -80 11 -3 4 -13 10 -22 14 -10 3 -18 12 -18 19
0 7 -9 30 -20 51 -24 44 -25 58 -6 51 8 -3 24 -1 35 5 28 16 16 41 -20 41 -38
0 -37 10 6 51 19 19 35 42 35 51 0 10 12 47 26 83 15 36 24 69 20 72 -10 10
15 33 35 33 11 0 19 7 19 16 0 12 -4 14 -12 7 -7 -6 -30 -13 -50 -17 -20 -4
-50 -13 -65 -21 -15 -8 -33 -15 -39 -15 -7 0 -14 -6 -17 -13 -3 -8 -27 -24
-54 -37 -26 -12 -60 -31 -75 -42 l-28 -19 -12 28 c-20 49 -58 126 -88 178 -15
28 -49 90 -74 139 -57 109 -113 196 -125 196 -5 0 -9 34 -10 74 -1 41 -8 107
-16 147 -13 63 -13 74 -1 88 8 9 16 36 18 61 3 35 8 45 21 44 12 -1 17 6 17
27 0 81 103 213 273 347 44 35 85 69 93 76 8 8 29 19 48 26 19 6 42 22 50 36
18 26 56 33 56 9 0 -15 38 -41 47 -32 2 3 -3 19 -12 36 -17 33 -13 51 10 51 7
0 16 8 18 18 3 9 5 -3 6 -28 1 -30 4 -40 10 -31 13 20 89 -101 139 -220 11
-25 27 -53 37 -63 24 -23 36 -176 16 -200 -17 -21 -24 -192 -10 -245 10 -42
10 -54 -3 -82 -9 -19 -26 -56 -37 -84 -12 -27 -26 -57 -31 -65 -6 -8 -13 -22
-16 -30 -3 -8 -21 -50 -40 -93 -19 -43 -34 -87 -34 -97 0 -10 -4 -21 -9 -24
-5 -3 -11 -24 -13 -47 l-4 -41 19 24 c11 12 41 47 68 76 l49 52 -1 83 c-1 110
10 137 55 137 34 0 35 0 30 -38 -3 -20 -15 -76 -26 -125 -16 -68 -27 -94 -49
-115 -16 -15 -29 -32 -29 -39 0 -6 -14 -23 -32 -37 -40 -31 -29 -47 15 -23 61
33 128 160 142 267 13 104 21 136 41 176 14 28 24 66 25 93 0 33 3 41 8 26 20
-51 44 -124 53 -162 5 -24 14 -43 19 -43 5 0 9 -6 9 -13 0 -8 10 -22 21 -33
22 -19 22 -19 12 1 -6 11 -20 56 -32 100 -12 43 -27 85 -33 92 -6 8 -8 16 -5
20 3 3 0 17 -7 32 -16 30 -49 211 -41 219 3 3 -1 15 -9 27 -8 12 -16 35 -19
51 -2 16 -3 -9 -1 -56 l4 -85 -30 90 c-16 50 -30 100 -30 112 0 12 -4 33 -10
47 -13 35 8 35 48 1 17 -14 39 -25 51 -25 12 0 21 -4 21 -9 0 -5 42 -31 93
-57 142 -75 201 -89 246 -58 20 14 29 15 64 4 23 -7 50 -18 61 -25 10 -8 24
-11 31 -8 8 2 29 -2 47 -10 46 -19 98 -37 133 -46 72 -18 122 -50 175 -111 74
-85 79 -90 96 -90 21 0 155 -132 150 -147 -3 -7 4 -15 15 -18 11 -4 39 -26 63
-50 44 -45 86 -68 108 -60 7 3 24 22 38 42 17 25 44 45 90 65 36 17 106 50
155 73 97 48 152 61 147 35 -3 -12 -1 -12 9 -3 14 14 21 63 8 63 -5 0 -9 7 -9
15 0 24 -89 136 -212 267 -27 27 -48 54 -48 59 0 5 -10 15 -23 24 -21 14 -27
13 -67 -6 -60 -29 -59 -30 -65 138 -2 34 -5 69 -8 76 -3 8 -30 28 -61 46 -31
17 -56 35 -56 40 0 5 -17 15 -37 22 -21 6 -57 31 -81 55 -23 24 -49 44 -57 44
-21 0 -29 24 -15 49 12 24 7 25 -75 12 -27 -5 -53 -7 -57 -5 -3 2 4 23 17 47
32 56 115 307 115 346 0 47 -25 54 -101 27 -83 -29 -201 -88 -252 -126 -22
-16 -42 -29 -43 -27 -5 5 48 155 72 203 13 28 27 67 31 87 5 32 1 41 -30 72
-38 38 -78 45 -145 26 -17 -5 -32 -7 -32 -5 0 3 20 33 43 67 74 106 116 213
124 322 l6 71 71 47 c94 61 260 201 320 268 151 172 155 358 13 589 -43 69
-87 123 -95 115 -3 -2 18 -37 45 -77 101 -146 151 -282 139 -381 -3 -26 -19
-78 -37 -115 -41 -85 -188 -234 -340 -344 l-107 -76 -5 31 c-3 25 4 46 37 97
55 86 63 103 29 61 -15 -19 -38 -46 -50 -60 l-22 -26 -1 32 c-1 85 -40 288
-94 483 -14 48 -34 94 -43 97 -6 2 5 -52 24 -119 18 -68 38 -143 44 -168 5
-25 11 -54 14 -65 12 -50 17 -74 25 -130 19 -131 19 -154 -3 -183 -12 -15 -24
-29 -27 -32 -3 -3 -32 -41 -65 -85 -32 -44 -79 -104 -103 -133 -25 -29 -42
-55 -39 -58 6 -7 62 53 123 132 23 29 44 51 47 47 4 -3 23 4 43 16 l36 22 -5
-43 c-8 -71 -44 -188 -82 -264 -41 -83 -108 -150 -185 -185 -52 -23 -67 -41
-27 -32 12 3 18 2 14 -2 -4 -5 -15 -10 -23 -11 -17 -3 -214 -101 -278 -139
-22 -13 -43 -30 -48 -39 -5 -9 -16 -16 -25 -16 -13 0 -11 6 10 28 53 55 170
342 211 514 53 227 66 317 71 509 4 151 -15 453 -32 499 -3 8 -7 24 -8 35 -11
109 -17 131 -43 150 -94 71 -112 104 -72 140 14 13 17 22 10 31 -12 13 -3 67
10 59 5 -3 6 4 3 15 -3 11 -1 20 4 20 28 0 183 -39 211 -54 34 -17 37 -23 23
-44 -5 -9 -1 -29 10 -52 11 -22 19 -45 19 -52 0 -17 45 -127 57 -139 5 -5 18
-7 28 -3 15 6 17 16 12 73 -4 47 -1 76 10 101 9 19 18 51 22 70 l6 35 85 7
c47 4 102 11 124 17 47 12 60 5 104 -57 48 -69 72 -96 79 -88 3 3 -9 25 -27
48 l-34 41 32 -19 c18 -10 32 -23 32 -29 0 -23 44 74 52 115 47 247 -19 563
-195 930 -72 150 -256 462 -335 565 -4 6 -33 44 -63 85 -31 41 -71 91 -88 110
-18 19 -39 48 -47 63 -9 17 -21 26 -29 23 -10 -3 -12 0 -8 12 3 9 3 14 -2 10
-4 -4 -21 13 -37 37 -17 25 -34 48 -40 51 -8 5 41 -102 72 -159 18 -30 100
-219 140 -317 20 -52 49 -120 63 -150 13 -30 36 -86 50 -125 14 -38 47 -126
74 -195 27 -69 62 -164 78 -213 16 -48 31 -83 35 -78 3 5 6 -7 6 -28 1 -21 7
-47 13 -57 11 -16 11 -15 6 11 -4 16 -3 26 2 22 4 -5 9 -32 9 -60 2 -79 14
-134 35 -155 10 -11 16 -22 14 -24 -12 -12 38 -228 61 -263 13 -20 19 -22 46
-14 40 11 50 3 14 -11 -52 -19 -83 -13 -112 25 -47 62 -208 462 -300 744 -2 8
-7 11 -10 8 -11 -11 93 -321 152 -452 30 -69 94 -219 94 -222 0 -2 -4 -1 -10
2 -17 11 -11 -4 20 -47 41 -56 39 -67 -7 -58 -21 4 -50 12 -64 18 -22 9 -161
171 -298 347 -19 24 -37 43 -39 40 -4 -4 26 -45 181 -241 37 -48 67 -90 67
-95 0 -11 -92 52 -139 95 -37 35 -188 211 -239 279 -37 50 -126 192 -182 287
-82 142 -238 457 -244 495 -25 142 -113 442 -163 555 -11 25 -33 77 -48 115
-28 71 -98 209 -156 306 -91 156 -178 268 -299 390 -115 116 -181 167 -281
216 -79 40 -141 63 -128 49z m1766 -1608 c-3 -8 -6 -5 -6 6 -1 11 2 17 5 13 3
-3 4 -12 1 -19z m128 -324 c15 -37 19 -51 10 -43 -8 9 -35 79 -30 79 2 0 12
-16 20 -36z m64 -194 c0 -8 -7 1 -14 20 -18 46 -17 64 0 25 8 -16 14 -37 14
-45z m40 -120 c1 -13 0 -13 -9 0 -5 8 -9 26 -9 40 l1 25 8 -25 c4 -14 8 -32 9
-40z m-669 -624 c0 -7 -7 -19 -15 -26 -16 -14 -20 -36 -6 -42 11 -4 103 -118
95 -118 -4 0 -2 -6 4 -12 18 -23 72 -131 72 -144 0 -13 40 -104 50 -114 30
-30 54 -140 28 -124 -7 4 -38 24 -68 43 -71 46 -307 161 -329 161 -15 0 -18
29 -8 70 3 14 8 80 11 148 3 108 6 127 25 148 18 20 30 24 81 24 44 0 60 -4
60 -14z m905 -16 c-10 -11 -25 -20 -33 -20 -14 0 -14 -8 3 -55 4 -11 -4 -5
-16 14 -16 24 -19 36 -11 39 7 2 9 9 5 15 -4 6 0 8 10 4 8 -3 21 1 27 9 7 8
17 14 23 14 5 0 2 -9 -8 -20z m-822 -72 c9 -32 -1 -40 -29 -22 -35 23 -31 34
17 43 4 0 9 -9 12 -21z m577 -1152 c0 -24 -54 -75 -67 -63 -4 5 55 87 64 87 2
0 3 -11 3 -24z m-700 -161 c0 -25 -4 -45 -10 -45 -11 0 -14 73 -3 83 11 12 13
8 13 -38z m-20 -218 c-6 -55 -15 -110 -20 -123 -9 -22 -118 -84 -148 -84 -8 0
-12 -6 -9 -12 4 -14 15 -14 62 -3 30 7 30 6 10 -12 -12 -10 -27 -27 -35 -37
-15 -19 -14 -19 15 -3 55 30 82 56 67 66 -11 7 -11 9 2 14 12 5 16 0 16 -18 0
-13 -4 -26 -8 -29 -5 -3 -14 -29 -21 -58 -10 -42 -20 -58 -45 -74 -41 -27 -93
-45 -111 -38 -8 4 -15 1 -15 -5 0 -18 62 -13 103 8 43 22 45 19 12 -34 -13
-22 -34 -58 -46 -79 -31 -58 -166 -193 -179 -180 -12 12 -32 115 -31 153 1 34
38 89 94 141 48 44 49 46 23 48 -14 1 -26 -2 -26 -6 0 -12 -72 -92 -82 -92 -5
0 -7 4 -4 9 4 5 7 28 8 51 1 33 6 44 23 50 28 11 56 55 61 94 5 49 11 72 27
103 21 38 170 183 190 183 25 0 47 11 41 21 -3 5 -1 9 5 9 6 0 14 24 18 53 14
92 16 -3 3 -116z m-320 104 c0 -11 -4 -23 -10 -26 -5 -3 -10 -20 -10 -36 0
-17 -7 -44 -16 -60 -24 -48 -45 -163 -54 -299 -6 -88 -5 -127 3 -132 8 -5 8
-27 0 -80 -8 -59 -7 -76 3 -89 8 -9 11 -18 8 -22 -3 -3 -1 -22 6 -42 6 -20 9
-43 6 -52 -6 -14 -8 -14 -26 2 -11 10 -26 30 -34 44 -7 14 -28 53 -45 85 -36
69 -44 79 -41 51 1 -11 2 -23 1 -27 0 -5 -28 12 -61 36 -34 25 -70 48 -80 51
-11 4 -20 10 -20 15 0 17 -76 38 -130 34 -30 -2 -47 -1 -38 2 9 3 37 42 62 87
44 81 76 115 251 268 27 24 85 81 129 127 44 45 83 82 88 82 4 0 8 -9 8 -19z
m100 -165 c0 -3 -4 -8 -10 -11 -5 -3 -10 -1 -10 4 0 6 5 11 10 11 6 0 10 -2
10 -4z m770 -76 c0 -13 -76 -63 -90 -58 -6 2 8 18 32 35 46 34 58 39 58 23z
m-1447 -307 c-7 -2 -21 -2 -30 0 -10 3 -4 5 12 5 17 0 24 -2 18 -5z m716 -185
c-2 -2 -20 -16 -39 -33 l-35 -30 29 33 c17 17 34 32 40 32 5 0 7 -1 5 -2z
m-1175 -145 c-14 -27 -20 -33 -22 -20 -4 19 26 73 35 64 2 -3 -3 -23 -13 -44z
m1943 -71 c28 -31 86 -95 127 -142 42 -47 102 -123 134 -169 31 -45 68 -96 81
-112 12 -16 21 -36 17 -44 -3 -8 -1 -17 4 -20 15 -9 12 -55 -5 -71 -20 -21
-66 -10 -95 22 -13 13 -29 24 -37 24 -7 0 -12 6 -11 13 2 6 -1 11 -7 10 -11
-1 -29 16 -34 32 -2 6 -8 8 -14 7 -7 -2 -8 0 -4 4 9 9 -2 21 -124 141 -82 80
-112 101 -70 47 11 -15 21 -32 21 -38 -1 -6 -7 0 -15 14 -7 14 -16 24 -19 23
-22 -10 -31 0 -30 31 2 31 -40 107 -92 167 -15 17 -18 57 -6 75 10 16 72 42
102 43 18 1 39 -15 77 -57z m-1047 -6 c0 -2 -7 -7 -16 -10 -8 -3 -12 -2 -9 4
6 10 25 14 25 6z m460 -10 c0 -11 -19 -15 -25 -6 -3 5 1 10 9 10 9 0 16 -2 16
-4z m-635 -136 c-3 -5 -11 -10 -16 -10 -6 0 -7 5 -4 10 3 6 11 10 16 10 6 0 7
-4 4 -10z m-135 -64 c0 -3 -4 -8 -10 -11 -5 -3 -10 -1 -10 4 0 6 5 11 10 11 6
0 10 -2 10 -4z m1227 -128 c-2 -13 -4 -5 -4 17 -1 22 1 32 4 23 2 -10 2 -28 0
-40z m-20 -42 c-3 -8 -16 -20 -28 -27 l-22 -11 23 31 c22 32 38 36 27 7z
m-1310 -788 c-2 -13 -4 -5 -4 17 -1 22 1 32 4 23 2 -10 2 -28 0 -40z m13 -208
c0 -5 -2 -10 -4 -10 -3 0 -8 5 -11 10 -3 6 -1 10 4 10 6 0 11 -4 11 -10z m628
-487 c54 -7 55 -26 3 -77 -42 -41 -71 -43 -71 -6 0 11 -9 39 -21 61 l-20 40
33 -6 c18 -3 52 -9 76 -12z"/>
<path d="M6940 5576 c0 -30 40 -222 62 -294 13 -44 25 -69 30 -64 6 6 4 27 -5
53 -8 24 -25 100 -38 169 -13 69 -29 131 -36 138 -11 11 -13 11 -13 -2z"/>
<path d="M3425 8450 c-3 -6 1 -7 9 -4 18 7 21 14 7 14 -6 0 -13 -4 -16 -10z"/>
<path d="M4390 8389 c0 -5 5 -7 10 -4 6 3 10 8 10 11 0 2 -4 4 -10 4 -5 0 -10
-5 -10 -11z"/>
<path d="M4348 8352 c-39 -42 -188 -246 -188 -257 1 -11 13 4 70 82 19 26 61
81 94 121 58 72 73 107 24 54z"/>
<path d="M2452 7563 c-12 -4 -99 -177 -132 -261 -9 -24 -16 -30 -25 -22 -6 5
-15 7 -18 3 -11 -11 -8 -23 7 -23 12 0 -3 -57 -39 -142 -4 -10 -3 -18 2 -18 6
0 29 44 53 98 24 53 71 159 106 235 34 75 62 137 61 136 -1 0 -8 -3 -15 -6z"/>
<path d="M5770 7498 c0 -7 5 -20 10 -28 8 -12 10 -11 10 7 0 12 -4 25 -10 28
-5 3 -10 0 -10 -7z"/>
<path d="M2918 7486 c-33 -25 -118 -151 -167 -246 -171 -333 -241 -668 -228
-1075 4 -99 9 -193 13 -210 4 -22 3 -26 -5 -15 -5 8 -13 40 -17 70 l-7 55 -13
-35 c-17 -46 -17 -50 1 -50 11 0 12 -5 6 -23 -6 -15 -4 -36 6 -62 8 -22 15
-45 16 -51 2 -6 11 -24 22 -40 11 -16 34 -64 52 -108 35 -86 55 -114 135 -197
59 -61 82 -121 52 -133 -12 -4 -15 -24 -15 -83 1 -43 -4 -109 -9 -148 -6 -38
-8 -87 -4 -108 6 -37 5 -38 -16 -27 -35 19 -167 148 -234 230 -115 139 -110
126 -108 268 0 68 5 129 11 135 5 7 14 41 21 77 6 36 16 74 20 85 14 30 33
139 28 161 -5 29 -42 -57 -66 -156 -24 -98 -46 -289 -40 -348 2 -22 0 -38 -4
-36 -12 7 -103 164 -148 255 -22 43 -42 79 -45 79 -7 0 45 -133 68 -170 63
-105 185 -290 211 -321 17 -19 49 -57 71 -85 60 -74 121 -128 210 -187 44 -28
88 -59 98 -68 10 -9 37 -22 60 -30 23 -7 48 -20 56 -27 13 -12 7 -13 -40 -9
-63 7 -99 16 -116 30 -19 14 -16 30 4 23 15 -6 15 -4 -2 14 -24 27 -45 26 -38
-1 5 -20 4 -20 -18 -9 -24 13 -24 13 -6 -8 46 -51 182 -82 272 -61 22 5 58 13
80 18 l40 9 -58 1 c-71 1 -188 39 -249 80 l-44 30 8 63 c4 35 14 130 22 211 7
81 16 150 19 153 3 3 31 -6 63 -21 67 -30 114 -42 114 -27 0 5 -17 13 -37 17
-52 9 -111 44 -119 69 -6 16 -8 241 -4 389 0 9 5 17 12 17 6 0 9 -2 6 -5 -6
-7 5 -61 28 -142 14 -49 17 -52 36 -42 19 10 20 17 14 78 -6 59 -4 69 13 85
27 24 148 66 195 66 37 0 38 -1 32 -27 -16 -65 -17 -82 -6 -121 12 -48 27 -54
36 -14 12 54 16 63 37 83 12 12 39 32 60 45 24 16 37 32 38 47 0 21 1 21 10 2
10 -21 62 -55 84 -55 7 0 32 -16 55 -35 23 -19 46 -35 52 -35 5 0 6 -5 3 -10
-4 -6 -1 -36 6 -68 14 -63 14 -59 4 -89 -4 -17 -2 -23 8 -23 18 0 40 81 31
116 -4 17 -2 29 7 34 9 6 -4 25 -52 72 -124 119 -175 159 -249 193 -43 20 -79
43 -84 55 -5 11 -16 20 -26 20 -9 0 -21 5 -28 12 -9 9 -12 9 -12 0 0 -21 -17
-13 -23 10 -8 27 1 37 14 18 7 -10 8 2 3 40 -31 243 -30 237 -38 201 -5 -19
-9 -78 -10 -131 -3 -102 -20 -163 -46 -158 -8 2 -27 26 -42 53 -28 51 -40 40
-13 -11 20 -39 19 -49 -7 -62 -19 -8 -14 -10 31 -9 58 2 77 -13 38 -30 -27
-13 -75 -6 -98 13 -8 8 -33 20 -54 27 -47 17 -77 53 -69 84 l6 23 19 -24 c11
-13 19 -28 19 -34 0 -5 9 -17 20 -27 25 -23 26 -6 1 26 -25 33 -68 177 -82
274 -6 44 -12 81 -13 83 -2 1 -11 -19 -21 -45 -10 -27 -23 -61 -30 -78 -17
-39 -39 -119 -60 -228 -17 -80 -19 -86 -35 -72 -36 33 -41 10 -7 -32 21 -25
25 -42 30 -149 7 -127 28 -214 70 -295 43 -80 37 -85 -24 -19 -102 109 -145
223 -175 465 -39 306 15 750 122 1022 61 155 163 345 232 431 36 44 38 50 10
28z m199 -1288 c-3 -7 -5 -2 -5 12 0 14 2 19 5 13 2 -7 2 -19 0 -25z m13 -38
c0 -11 -4 -20 -9 -20 -5 0 -7 9 -4 20 3 11 7 20 9 20 2 0 4 -9 4 -20z m-364
-167 c18 3 24 0 24 -14 0 -16 -3 -17 -32 -4 -18 7 -33 18 -32 24 4 47 7 54 11
22 4 -29 7 -32 29 -28z m134 -21 c0 -14 -32 -20 -56 -12 -16 7 -19 15 -16 50
l4 43 34 -36 c19 -20 34 -40 34 -45z m220 68 c0 -5 -4 -10 -10 -10 -5 0 -10 5
-10 10 0 6 5 10 10 10 6 0 10 -4 10 -10z m168 -131 c-3 -8 -7 -3 -11 10 -4 17
-3 21 5 13 5 -5 8 -16 6 -23z m42 -9 c0 -13 -1 -13 -10 0 -5 8 -10 22 -10 30
0 13 1 13 10 0 5 -8 10 -22 10 -30z m-577 -20 c14 -16 33 -30 41 -30 18 0 19
-23 9 -198 -7 -122 -16 -135 -43 -61 -9 24 -19 51 -22 59 -24 62 -38 260 -19
260 5 0 21 -13 34 -30z m174 -202 c-3 -7 -5 -2 -5 12 0 14 2 19 5 13 2 -7 2
-19 0 -25z"/>
<path d="M5781 7434 c0 -11 3 -14 6 -6 3 7 2 16 -1 19 -3 4 -6 -2 -5 -13z"/>
<path d="M5792 7360 c0 -19 2 -27 5 -17 2 9 2 25 0 35 -3 9 -5 1 -5 -18z"/>
<path d="M3825 7369 c-4 -6 -5 -12 -2 -15 2 -3 7 2 10 11 7 17 1 20 -8 4z"/>
<path d="M2036 7314 c-25 -26 -44 -50 -41 -52 3 -3 26 15 52 41 26 26 44 49
41 52 -3 3 -26 -15 -52 -41z"/>
<path d="M6587 7285 c8 -25 19 -47 23 -50 4 -3 1 17 -8 45 -10 27 -20 50 -24
50 -4 0 0 -20 9 -45z"/>
<path d="M5802 7290 c0 -14 2 -19 5 -12 2 6 2 18 0 25 -3 6 -5 1 -5 -13z"/>
<path d="M3764 7234 c-9 -21 -21 -45 -26 -52 -6 -7 -32 -61 -57 -120 -45 -102
-64 -150 -161 -392 -25 -63 -54 -119 -74 -140 -18 -19 -40 -47 -50 -63 -9 -15
-46 -59 -83 -97 -36 -39 -60 -70 -53 -70 8 0 44 33 81 72 37 40 70 70 73 67 3
-3 -3 -37 -13 -75 -11 -38 -23 -115 -26 -171 -5 -71 -12 -103 -21 -107 -8 -3
-11 -12 -8 -21 3 -8 10 -12 15 -9 5 3 9 0 9 -7 0 -7 2 -10 5 -7 3 3 10 56 16
119 12 121 32 211 74 323 30 79 44 108 58 118 6 3 12 13 13 22 1 8 8 32 15 53
10 33 13 35 20 18 6 -15 8 -12 7 15 -1 30 29 117 77 225 52 117 85 197 99 239
9 26 21 57 27 68 6 11 8 22 5 25 -3 4 -13 -11 -22 -33z"/>
<path d="M2218 7182 c-43 -68 -208 -371 -208 -383 0 -4 -5 -11 -12 -15 -7 -5
-9 -1 -6 13 4 14 -11 3 -43 -30 -30 -32 -49 -45 -49 -35 0 8 7 21 15 28 8 7
15 19 15 26 0 8 8 14 18 14 13 0 14 2 4 9 -11 6 -9 9 6 13 15 4 21 16 24 53 2
32 -1 49 -9 52 -15 6 -18 43 -3 43 6 0 10 9 10 20 0 17 -7 20 -40 20 -32 0
-40 -4 -40 -18 0 -10 -14 -44 -30 -76 -17 -32 -29 -64 -26 -70 2 -6 5 -3 5 7
1 9 8 17 16 17 17 0 20 -16 5 -25 -6 -4 -5 -12 4 -20 8 -8 12 -23 9 -34 -6
-23 -63 -38 -74 -19 -5 8 -11 3 -18 -15 -6 -16 -11 -31 -11 -34 0 -3 -13 -28
-30 -55 -16 -26 -30 -53 -30 -59 0 -10 -22 -61 -65 -151 -13 -27 -19 -50 -14
-54 5 -3 12 3 16 13 15 39 177 227 218 253 16 10 47 33 69 51 36 31 38 32 31
9 -4 -13 -23 -56 -41 -96 -19 -39 -34 -75 -34 -79 0 -4 -24 -62 -54 -129 -29
-66 -66 -159 -81 -206 -15 -47 -33 -98 -40 -115 -13 -32 -41 -116 -74 -225
-27 -87 -123 -457 -128 -495 -3 -16 -15 -88 -28 -160 -52 -281 -66 -621 -32
-745 33 -120 148 -349 204 -408 7 -7 13 -19 13 -26 0 -6 31 -49 70 -94 38 -45
83 -110 99 -145 16 -34 42 -76 56 -92 l27 -30 -27 50 c-15 28 -36 65 -47 83
-25 41 -12 41 38 -1 44 -37 109 -77 126 -77 6 0 -7 12 -28 26 -47 32 -143 112
-166 139 -10 11 -22 35 -28 53 -7 17 -16 32 -22 32 -6 0 -7 -8 -4 -17 8 -22
-66 58 -118 127 -93 126 -172 360 -195 580 -8 76 8 273 28 355 5 22 17 69 26
105 17 69 55 182 81 240 63 141 104 209 206 340 l43 55 6 -280 c6 -264 4 -320
-22 -470 -23 -135 -27 -216 -18 -360 14 -233 43 -372 100 -485 16 -32 29 -65
29 -74 0 -9 5 -16 11 -16 7 0 8 7 4 18 -18 45 -55 152 -70 203 -20 72 -9 219
32 409 9 41 17 93 19 115 l4 40 -25 -50 c-13 -27 -30 -75 -36 -105 -6 -30 -15
-64 -20 -75 -4 -11 -10 -31 -12 -45 -1 -14 -7 8 -11 48 -11 102 2 386 20 409
26 36 62 -16 84 -123 7 -34 50 -120 91 -184 5 -8 22 -35 37 -60 15 -24 40 -56
56 -70 16 -14 42 -37 59 -52 42 -37 58 -36 22 2 -16 16 -34 30 -39 30 -10 0
-78 97 -99 139 -4 9 -21 39 -37 66 -56 91 -125 257 -113 268 3 3 0 22 -7 41
-6 20 -13 60 -15 89 -2 28 -9 120 -15 202 -6 83 -9 200 -6 260 18 332 15 406
-9 223 -5 -36 -20 -66 -63 -125 -31 -43 -64 -87 -74 -97 -10 -11 -18 -23 -18
-27 0 -4 -18 -26 -40 -49 -22 -23 -40 -46 -40 -51 0 -5 -15 -41 -33 -81 -18
-40 -38 -84 -45 -98 -11 -25 -11 -25 -11 8 -1 18 3 40 9 50 5 9 14 42 19 72
30 164 88 373 160 572 12 32 21 63 21 69 0 6 7 25 15 42 8 18 26 66 41 107 15
41 35 93 45 115 9 22 43 99 74 170 68 156 280 572 331 650 9 14 12 25 8 25 -5
0 -25 -26 -46 -58z m-298 -377 c-6 -8 -9 -19 -5 -25 3 -5 1 -10 -4 -10 -15 0
-14 37 2 43 19 8 20 8 7 -8z m-35 -95 c3 -5 1 -10 -4 -10 -6 0 -11 5 -11 10 0
6 2 10 4 10 3 0 8 -4 11 -10z"/>
<path d="M1940 7195 c0 -8 2 -15 4 -15 2 0 6 7 10 15 3 8 1 15 -4 15 -6 0 -10
-7 -10 -15z"/>
<path d="M4857 7148 c-18 -35 -55 -106 -82 -158 -26 -52 -58 -113 -71 -135
-29 -52 -76 -166 -71 -172 10 -10 204 360 231 441 9 26 21 57 27 67 5 11 8 19
5 19 -2 0 -20 -28 -39 -62z"/>
<path d="M1990 7182 c0 -10 -5 -23 -12 -30 -6 -6 -9 -14 -6 -18 11 -10 43 30
40 49 -5 23 -22 22 -22 -1z"/>
<path d="M2997 7193 c-4 -3 -7 -13 -7 -22 1 -13 3 -13 11 2 11 19 8 33 -4 20z"/>
<path d="M6631 7180 c0 -8 4 -22 9 -30 12 -18 12 -2 0 25 -6 13 -9 15 -9 5z"/>
<path d="M5812 7160 c0 -14 2 -19 5 -12 2 6 2 18 0 25 -3 6 -5 1 -5 -13z"/>
<path d="M2967 7065 c-38 -209 -51 -430 -32 -563 9 -67 19 -59 16 11 -3 61 20
130 80 239 44 80 57 118 40 118 -6 0 -18 -11 -27 -25 -9 -14 -20 -22 -25 -20
-4 3 -24 -18 -45 -47 l-36 -53 6 93 c4 51 16 143 27 204 11 61 18 116 16 122
-2 6 -11 -29 -20 -79z"/>
<path d="M3577 7113 c-11 -13 -17 -27 -14 -30 3 -2 13 7 23 21 22 34 15 42 -9
9z"/>
<path d="M6651 7120 c0 -8 4 -24 9 -35 5 -13 9 -14 9 -5 0 8 -4 24 -9 35 -5
13 -9 14 -9 5z"/>
<path d="M5507 7053 c-11 -89 -23 -158 -30 -170 -4 -6 -11 -31 -16 -55 -5 -24
-21 -74 -36 -113 -15 -38 -33 -90 -41 -115 -8 -25 -29 -70 -48 -100 -41 -68
-51 -93 -34 -88 33 11 118 196 118 257 0 12 3 20 8 20 22 -4 31 3 25 18 -4 10
-2 14 4 10 9 -6 21 -97 29 -222 5 -94 16 -187 30 -258 l14 -72 -6 105 c-4 58
-8 155 -9 215 -2 61 -6 175 -10 255 -5 113 -3 167 9 242 19 114 19 118 7 118
-5 0 -12 -21 -14 -47z"/>
<path d="M1840 7063 c-91 -117 -193 -280 -272 -438 -85 -168 -166 -350 -188
-420 -11 -38 -26 -85 -31 -103 -13 -40 -19 -275 -9 -317 6 -23 8 -11 11 45 5
132 8 159 38 290 10 44 48 158 92 275 53 138 271 527 363 648 16 21 26 40 24
43 -3 3 -15 -8 -28 -23z"/>
<path d="M2008 7025 c-3 -14 -1 -25 3 -25 5 0 9 11 9 25 0 14 -2 25 -4 25 -2
0 -6 -11 -8 -25z"/>
<path d="M3198 6995 c-41 -36 -47 -48 -23 -39 8 4 15 10 15 15 0 5 14 15 30
24 17 9 30 20 30 25 0 17 -14 11 -52 -25z"/>
<path d="M3476 6974 c-5 -14 -4 -15 9 -4 17 14 19 20 6 20 -5 0 -12 -7 -15
-16z"/>
<path d="M6711 6914 c0 -11 3 -14 6 -6 3 7 2 16 -1 19 -3 4 -6 -2 -5 -13z"/>
<path d="M5250 6808 c-35 -51 -95 -135 -134 -186 -98 -130 -106 -143 -67 -107
33 30 167 209 191 256 7 13 19 28 27 32 15 9 57 87 50 93 -3 3 -33 -37 -67
-88z"/>
<path d="M2001 6864 c0 -11 3 -14 6 -6 3 7 2 16 -1 19 -3 4 -6 -2 -5 -13z"/>
<path d="M2087 6836 c-4 -10 -7 -25 -6 -34 0 -11 4 -9 10 7 5 13 8 29 6 35 -2
5 -6 2 -10 -8z"/>
<path d="M3375 6810 c-8 -16 -15 -32 -15 -37 0 -10 25 27 33 50 10 27 -1 20
-18 -13z"/>
<path d="M4808 6787 c-3 -19 -2 -25 4 -19 6 6 8 18 6 28 -3 14 -5 12 -10 -9z"/>
<path d="M2065 6745 c-3 -22 -13 -60 -21 -85 -45 -147 -45 -585 1 -825 46
-236 45 -231 24 -293 -27 -77 -49 -230 -48 -327 1 -44 3 -69 6 -55 2 14 11 72
19 130 9 58 21 110 26 115 11 11 8 -6 -17 -135 -15 -79 -19 -162 -9 -173 10
-9 34 19 34 40 1 22 23 53 39 53 6 0 11 7 11 15 0 8 5 15 10 15 6 0 10 8 11
18 0 9 3 12 6 5 2 -7 -9 -32 -25 -55 -16 -24 -39 -63 -52 -88 -24 -48 -38 -62
-53 -53 -6 4 -8 -14 -5 -43 5 -51 84 -234 108 -249 8 -5 7 2 -3 21 -35 69 -68
217 -53 243 6 11 33 57 59 103 40 69 66 144 67 196 0 2 4 1 9 -3 5 -3 15 -22
22 -43 6 -20 39 -95 72 -166 l60 -128 -2 -142 c-2 -157 13 -264 52 -366 23
-61 56 -129 67 -140 3 -3 13 -22 22 -42 10 -21 21 -38 26 -38 4 0 25 -27 47
-61 35 -55 163 -185 172 -175 3 2 -24 33 -60 68 -80 79 -107 115 -100 134 3 8
-3 17 -13 21 -19 7 -43 32 -44 46 0 4 8 7 18 7 25 0 49 27 58 65 4 17 10 35
14 40 9 14 37 94 43 125 3 14 1 48 -3 75 -5 35 -8 41 -9 20 -2 -37 -26 -139
-37 -156 -10 -17 -22 15 -23 63 -2 69 -61 213 -176 426 -31 58 -47 100 -122
321 -24 73 -55 174 -68 225 -17 67 -25 86 -31 71 -5 -11 1 -50 13 -97 11 -43
17 -78 14 -78 -16 0 -95 269 -133 455 -39 190 -41 211 -46 424 -4 217 4 341
30 448 5 23 8 48 5 55 -2 7 -8 -5 -12 -27z m49 -1246 c-4 -8 0 -9 15 -4 25 8
27 0 6 -21 -10 -10 -15 -11 -15 -3 0 8 -5 8 -17 -2 -9 -8 -14 -9 -11 -4 2 6 8
18 11 28 4 9 9 17 12 17 4 0 3 -5 -1 -11z m46 -39 c0 -5 -5 -10 -11 -10 -5 0
-7 5 -4 10 3 6 8 10 11 10 2 0 4 -4 4 -10z m-73 -32 c-3 -8 -6 -5 -6 6 -1 11
2 17 5 13 3 -3 4 -12 1 -19z m334 -570 c12 -24 32 -54 45 -68 29 -31 89 -200
103 -290 21 -131 9 -191 -36 -182 -44 8 -114 180 -138 338 -12 77 -11 244 1
244 2 0 13 -19 25 -42z"/>
<path d="M5837 6730 c-3 -14 -8 -97 -10 -186 -3 -102 -9 -169 -17 -184 -7 -13
-16 -66 -21 -119 -5 -53 -14 -123 -19 -156 -6 -33 -13 -77 -15 -98 -3 -21 -9
-46 -14 -55 -5 -10 -12 -43 -16 -73 -7 -67 -36 -178 -68 -263 l-10 -28 -18 23
c-23 30 -24 22 -3 -20 17 -34 13 -74 -13 -126 -28 -55 -40 -63 -79 -55 -44 10
-84 36 -84 55 0 8 -8 19 -18 24 -11 6 -31 26 -46 46 -25 32 -26 37 -12 51 9 8
16 29 16 46 l0 31 -62 -6 c-52 -5 -73 -1 -117 17 -47 21 -54 27 -57 55 -3 24
-1 30 9 25 6 -4 3 2 -7 14 -19 22 -53 31 -41 12 3 -6 -2 -18 -11 -27 -15 -15
-41 -18 -176 -20 -159 -3 -240 -16 -355 -60 -75 -28 -51 -35 92 -29 l134 5 -6
-32 c-3 -18 -9 -39 -14 -47 -7 -14 -12 -95 -10 -163 1 -38 19 -25 27 21 4 23
20 49 41 70 19 18 46 58 60 88 l25 54 59 -4 c73 -6 224 -78 283 -136 33 -32
39 -45 38 -77 -1 -20 -11 -50 -22 -66 -22 -30 -31 -74 -16 -79 5 -2 14 6 20
17 6 11 21 33 34 49 15 18 23 41 22 60 -1 17 -2 35 -1 40 1 13 41 -25 41 -39
0 -7 9 -15 20 -18 29 -8 24 -36 -15 -86 -41 -51 -43 -58 -13 -37 12 9 31 16
41 16 10 0 39 16 64 35 43 33 63 42 63 30 0 -11 -51 -129 -58 -134 -4 -4 -11
-13 -17 -22 -44 -69 -107 -159 -115 -164 -6 -3 -10 -11 -10 -17 0 -17 44 33
84 95 20 33 46 69 58 80 11 12 34 50 50 83 32 67 61 104 82 104 8 0 19 7 26
15 10 13 9 15 -9 15 -11 0 -21 6 -21 13 1 20 38 97 48 97 5 0 13 26 16 58 4
31 13 73 20 92 13 34 43 146 50 185 5 34 27 138 36 175 16 66 30 156 30 189 0
18 7 56 15 84 18 62 34 338 25 422 -5 45 -8 54 -13 35z m-957 -1050 c0 -5 -13
-10 -30 -10 -16 0 -30 5 -30 10 0 6 14 10 30 10 17 0 30 -4 30 -10z m233 -56
c-7 -20 -21 -17 -33 5 -15 29 -13 32 14 20 14 -7 22 -17 19 -25z m37 -15 c0
-5 -4 -9 -10 -9 -5 0 -10 7 -10 16 0 8 5 12 10 9 6 -3 10 -10 10 -16z m360
-249 c12 -8 9 -10 -12 -10 -15 0 -30 5 -33 10 -8 13 25 13 45 0z"/>
<path d="M4787 6718 c-13 -35 -19 -53 -23 -77 -3 -14 -13 -45 -24 -70 -10 -25
-25 -66 -33 -91 -8 -25 -18 -54 -22 -65 -4 -11 2 -6 14 10 11 17 21 38 21 48
0 10 9 35 19 56 29 55 63 168 58 188 -4 17 -4 17 -10 1z"/>
<path d="M3321 6702 c-17 -31 -13 -40 5 -14 9 13 14 26 11 29 -3 2 -10 -4 -16
-15z"/>
<path d="M6032 6720 c-1 -3 -4 -108 -5 -235 -2 -126 -9 -257 -16 -290 -6 -33
-16 -85 -22 -115 -6 -30 -19 -77 -29 -105 -10 -27 -23 -79 -30 -113 -10 -57
-25 -103 -51 -154 -5 -10 -9 -25 -9 -34 0 -38 -160 -335 -202 -376 -15 -15
-35 -45 -45 -67 -10 -23 -21 -41 -24 -41 -4 0 -19 -20 -33 -44 -14 -24 -70
-88 -124 -143 -75 -75 -117 -108 -173 -137 l-74 -38 68 64 c37 35 67 67 67 72
0 8 -30 -14 -111 -83 -33 -29 -42 -32 -50 -20 -8 10 -8 7 -3 -11 4 -14 9 -32
11 -40 2 -8 -14 20 -35 63 -48 96 -62 112 -95 103 -28 -7 -43 -39 -52 -106
-10 -74 -7 -96 31 -208 13 -40 24 -76 24 -80 0 -4 -23 -18 -51 -31 -27 -13
-48 -25 -46 -27 2 -2 22 5 45 16 53 26 70 26 47 0 -9 -10 -28 -41 -41 -67
l-23 -48 62 -3 c83 -4 181 26 185 57 2 11 7 21 12 21 5 0 7 7 4 15 -4 8 1 33
10 55 12 30 13 40 3 40 -7 1 -6 5 5 13 15 12 12 18 -24 72 -22 33 -44 69 -49
80 -9 18 -9 19 4 3 20 -25 30 -22 16 4 -10 18 -9 24 5 33 117 70 220 150 294
225 18 19 32 28 29 20 -3 -8 -19 -55 -36 -105 -16 -49 -38 -110 -49 -134 -11
-24 -18 -49 -16 -55 2 -6 -14 -28 -35 -49 -30 -29 -46 -58 -66 -117 -18 -54
-35 -86 -53 -100 l-27 -21 25 7 c33 9 242 147 283 187 18 18 55 53 83 78 82
75 163 179 200 256 19 40 41 76 47 80 17 11 79 140 131 275 55 138 60 176 10
63 -20 -44 -52 -114 -72 -155 -20 -41 -37 -77 -37 -80 0 -3 -27 -52 -60 -110
-63 -112 -115 -190 -153 -229 l-24 -24 6 59 c3 32 10 118 15 191 5 72 11 135
14 140 3 5 2 26 -2 46 -8 32 -4 42 26 89 51 76 122 218 129 258 4 19 15 52 26
73 10 20 16 37 12 37 -4 0 -2 6 3 13 6 6 16 37 23 67 7 30 15 62 18 70 3 8 4
23 3 33 -1 10 2 24 6 30 33 43 70 267 76 452 4 106 -5 354 -11 335z m-354
-1559 c7 -21 12 -50 12 -65 0 -24 -3 -26 -22 -21 -39 12 -61 40 -54 68 6 26
31 57 45 57 4 0 13 -17 19 -39z m-97 -58 c-8 -15 -10 -15 -11 -2 0 17 10 32
18 25 2 -3 -1 -13 -7 -23z"/>
<path d="M3287 6628 c-8 -29 -4 -32 11 -8 6 10 8 21 3 24 -5 3 -11 -4 -14 -16z"/>
<path d="M3563 6615 c0 -22 2 -30 4 -17 2 12 2 30 0 40 -3 9 -5 -1 -4 -23z"/>
<path d="M4352 6578 c-19 -40 -45 -90 -58 -110 -27 -42 -29 -48 -13 -48 12 0
112 205 107 220 -2 6 -18 -22 -36 -62z"/>
<path d="M4641 6613 c-1 -12 -5 -24 -10 -27 -17 -11 -163 -206 -247 -331 -39
-58 -221 -235 -282 -274 -28 -19 -52 -38 -52 -43 0 -11 28 -10 35 2 3 6 14 10
24 10 11 0 61 46 117 107 55 58 119 127 144 153 25 25 70 75 100 110 30 36 80
91 110 123 54 58 55 58 63 33 5 -14 13 -26 17 -26 19 0 20 67 1 125 -10 33
-20 50 -20 38z"/>
<path d="M7976 6557 c3 -10 9 -15 12 -12 3 3 0 11 -7 18 -10 9 -11 8 -5 -6z"/>
<path d="M3546 6484 c-3 -26 -6 -82 -6 -124 0 -64 -5 -88 -30 -142 -16 -36
-34 -86 -41 -112 -6 -25 -15 -49 -20 -52 -13 -8 -11 -26 2 -22 7 2 24 41 38
86 15 46 34 91 43 101 12 14 16 52 20 164 3 81 4 147 3 147 -1 0 -5 -21 -9
-46z"/>
<path d="M3241 6450 c-17 -80 -14 -271 5 -309 8 -17 14 -37 11 -44 -2 -6 3
-17 12 -24 22 -17 31 -16 31 2 0 8 -4 15 -9 15 -14 0 -27 42 -41 126 -9 56 -4
187 9 246 5 21 5 38 1 38 -5 0 -13 -23 -19 -50z"/>
<path d="M1956 6424 c-9 -37 -15 -69 -12 -71 3 -3 8 8 12 23 3 16 10 46 16 68
5 21 7 40 5 42 -2 3 -12 -25 -21 -62z"/>
<path d="M4974 6443 c-23 -31 -24 -34 -5 -18 22 19 46 55 38 55 -3 0 -17 -17
-33 -37z"/>
<path d="M4177 6317 c-41 -51 -100 -117 -131 -147 -31 -29 -53 -56 -51 -59 5
-5 44 29 123 109 38 39 148 190 137 190 -2 0 -37 -42 -78 -93z"/>
<path d="M4666 6373 c-6 -14 -5 -15 5 -6 7 7 10 15 7 18 -3 3 -9 -2 -12 -12z"/>
<path d="M2965 6350 c3 -5 8 -10 11 -10 2 0 4 5 4 10 0 6 -5 10 -11 10 -5 0
-7 -4 -4 -10z"/>
<path d="M4217 6304 c-15 -25 -27 -48 -27 -51 0 -4 -7 -15 -17 -25 -9 -10 -12
-18 -7 -18 11 0 89 128 82 135 -2 2 -16 -16 -31 -41z"/>
<path d="M1931 6314 c0 -11 3 -14 6 -6 3 7 2 16 -1 19 -3 4 -6 -2 -5 -13z"/>
<path d="M4614 6324 c-7 -3 -10 -13 -7 -24 7 -27 -75 -178 -124 -227 -23 -24
-38 -43 -33 -43 5 0 24 16 42 37 18 20 41 43 50 52 17 16 80 145 93 189 6 22
2 25 -21 16z"/>
<path d="M1906 6191 c-10 -55 -16 -108 -14 -118 2 -10 12 33 22 95 10 63 16
116 13 118 -2 2 -12 -40 -21 -95z"/>
<path d="M4904 6189 c-19 -22 -19 -22 4 -10 12 6 22 16 22 21 0 15 -5 12 -26
-11z"/>
<path d="M1473 6168 c-31 -41 -107 -258 -90 -258 2 0 14 30 27 68 12 37 35 95
52 130 28 59 34 89 11 60z"/>
<path d="M3543 6145 c0 -22 2 -30 4 -17 2 12 2 30 0 40 -3 9 -5 -1 -4 -23z"/>
<path d="M4859 6143 c-13 -16 -12 -17 4 -4 9 7 17 15 17 17 0 8 -8 3 -21 -13z"/>
<path d="M5090 6130 c-17 -11 -20 -8 55 -50 73 -40 228 -145 263 -177 14 -13
27 -21 30 -18 9 9 -50 65 -113 108 -33 22 -62 44 -65 48 -3 4 -33 23 -67 43
-34 20 -65 41 -68 46 -8 12 -16 12 -35 0z"/>
<path d="M3540 6090 c0 -5 5 -10 11 -10 5 0 7 5 4 10 -3 6 -8 10 -11 10 -2 0
-4 -4 -4 -10z"/>
<path d="M4783 6088 c-13 -6 -23 -15 -23 -20 0 -14 16 -9 35 12 20 22 19 23
-12 8z"/>
<path d="M4715 6040 c-4 -6 -29 -22 -57 -36 -27 -14 -48 -27 -45 -30 2 -2 17
2 33 11 16 8 39 15 50 15 12 0 29 11 38 25 14 21 14 25 2 25 -8 0 -18 -5 -21
-10z"/>
<path d="M4390 6004 c-14 -8 -18 -14 -10 -14 8 1 24 7 34 15 24 19 10 18 -24
-1z"/>
<path d="M4578 5965 c-3 -3 -16 -8 -28 -10 -30 -6 -39 -15 -14 -15 20 1 77 29
58 30 -6 0 -13 -2 -16 -5z"/>
<path d="M4348 5949 c8 -8 42 -15 90 -17 42 -2 74 -1 69 4 -4 4 -31 9 -60 10
-28 0 -65 5 -82 9 -25 6 -28 5 -17 -6z"/>
<path d="M4282 5870 c13 -41 154 -81 174 -49 5 8 -1 10 -20 7 -38 -8 -106 11
-135 36 -16 14 -22 16 -19 6z"/>
<path d="M4822 5865 c-7 -8 -21 -15 -32 -15 -10 0 -22 -5 -26 -12 -5 -8 -2 -9
10 -5 10 4 30 10 44 13 54 12 58 14 42 24 -19 13 -23 12 -38 -5z"/>
<path d="M3420 5710 c-12 -23 -3 -25 23 -6 21 16 22 26 2 26 -8 0 -19 -9 -25
-20z"/>
<path d="M1361 5704 c0 -11 3 -14 6 -6 3 7 2 16 -1 19 -3 4 -6 -2 -5 -13z"/>
<path d="M3467 5694 c-4 -4 -7 -16 -7 -26 0 -24 36 -63 44 -49 8 13 -27 84
-37 75z"/>
<path d="M1380 5661 c0 -6 4 -13 10 -16 6 -3 7 1 4 9 -7 18 -14 21 -14 7z"/>
<path d="M3363 5651 c0 -11 5 -17 9 -15 11 7 10 34 -1 34 -6 0 -9 -9 -8 -19z"/>
<path d="M8176 5604 c-4 -9 -4 -19 -1 -22 2 -3 7 3 11 12 4 9 4 19 1 22 -2 3
-7 -3 -11 -12z"/>
<path d="M3440 5556 c-6 -8 -19 -12 -28 -9 -16 5 -16 5 0 -12 18 -19 32 -14
48 16 12 22 -2 26 -20 5z"/>
<path d="M8164 5545 c-9 -14 -14 -32 -10 -40 3 -8 2 -15 -3 -15 -9 0 -29 -40
-41 -81 -6 -21 -3 -32 16 -52 13 -15 24 -29 24 -31 0 -10 64 -111 74 -118 5
-3 10 -17 11 -30 1 -12 9 -57 19 -98 9 -41 16 -87 16 -102 0 -16 5 -28 11 -28
8 0 8 -5 -1 -15 -8 -10 -11 -40 -8 -89 3 -69 2 -75 -17 -78 -12 -2 -20 -11
-21 -23 -2 -48 -5 -55 -24 -55 -10 0 -24 -10 -31 -21 -8 -15 -8 -19 0 -15 6 4
11 3 11 -2 0 -6 -7 -12 -15 -16 -8 -3 -15 -12 -15 -21 0 -8 -6 -15 -13 -15 -7
0 -26 -13 -42 -30 -21 -22 -25 -30 -13 -30 9 0 18 -5 20 -12 3 -9 6 -9 12 0 4
7 2 12 -3 12 -21 0 -11 28 12 34 33 9 37 8 37 -9 0 -8 7 -15 15 -15 8 0 15 5
15 10 0 6 -4 10 -10 10 -5 0 -10 5 -10 10 0 6 30 10 70 10 40 0 70 -4 70 -10
0 -5 -22 -10 -50 -10 -27 0 -50 -4 -50 -10 0 -5 23 -10 50 -10 28 0 50 5 50
10 0 6 9 10 20 10 16 0 20 7 20 30 0 23 -4 30 -20 30 -11 0 -20 5 -20 10 0 6
14 10 30 10 28 0 30 -2 30 -40 0 -22 5 -40 10 -40 6 0 10 7 10 15 0 29 47 65
83 65 27 0 36 5 45 25 15 32 15 55 2 55 -13 0 -13 37 0 42 5 2 11 55 12 118 3
113 2 116 -32 190 -44 94 -66 126 -73 108 -5 -12 -7 -6 -11 46 0 10 -9 24 -20
30 -44 26 -97 89 -126 149 -17 36 -37 68 -45 71 -8 2 -17 21 -20 40 -9 44 -30
53 -51 21z m114 -480 c-3 -3 -9 2 -12 12 -6 14 -5 15 5 6 7 -7 10 -15 7 -18z"/>
<path d="M4996 5469 c-25 -20 -36 -59 -16 -59 6 0 10 5 10 10 0 6 11 22 25 35
33 29 16 42 -19 14z"/>
<path d="M3015 5460 c-3 -5 -2 -10 4 -10 5 0 13 5 16 10 3 6 2 10 -4 10 -5 0
-13 -4 -16 -10z"/>
<path d="M3220 5459 c0 -8 -23 -10 -75 -7 -56 4 -78 1 -86 -9 -6 -7 -18 -13
-25 -13 -8 0 -14 -7 -14 -15 0 -14 3 -14 30 0 33 17 76 20 85 5 8 -12 165 -13
184 -1 9 6 10 11 2 15 -6 4 -16 4 -22 0 -6 -3 -24 3 -40 15 -32 24 -39 26 -39
10z"/>
<path d="M5099 5463 c0 -4 0 -27 1 -50 1 -23 -4 -51 -10 -62 -17 -33 3 -24 22
9 11 20 15 41 11 65 -5 32 -22 58 -24 38z"/>
<path d="M5066 5303 c-6 -14 -5 -15 5 -6 7 7 10 15 7 18 -3 3 -9 -2 -12 -12z"/>
<path d="M2410 5221 c0 -4 11 -20 25 -35 14 -15 44 -53 66 -84 53 -74 158
-172 184 -172 18 1 18 2 -5 21 -14 12 -32 26 -40 33 -8 6 -28 27 -44 46 -16
19 -56 66 -90 103 -34 38 -65 75 -69 83 -9 15 -27 19 -27 5z"/>
<path d="M4760 5220 c-11 -7 -8 -11 15 -20 16 -6 38 -10 49 -8 18 3 16 6 -13
21 -19 9 -35 17 -35 17 -1 0 -8 -4 -16 -10z"/>
<path d="M4880 5191 c0 -6 14 -14 31 -18 18 -3 34 -13 36 -23 2 -9 20 -24 39
-35 19 -10 34 -22 34 -27 0 -4 5 -8 10 -8 6 0 10 9 10 20 0 10 8 24 18 29 15
9 15 10 1 11 -9 0 -27 9 -41 20 -14 10 -36 21 -49 24 -13 2 -39 8 -56 12 -22
4 -33 3 -33 -5z"/>
<path d="M6791 5154 c0 -11 3 -14 6 -6 3 7 2 16 -1 19 -3 4 -6 -2 -5 -13z"/>
<path d="M5150 5121 c0 -12 29 -41 41 -41 13 0 11 24 -3 38 -14 14 -38 16 -38
3z"/>
<path d="M6781 5119 c-1 -8 -12 -37 -25 -65 -13 -27 -26 -59 -30 -71 -4 -13
-14 -23 -21 -23 -9 0 -12 -6 -8 -16 3 -8 1 -25 -4 -37 -6 -12 -18 -49 -28 -82
-30 -98 -106 -269 -125 -282 -10 -7 -20 -27 -24 -45 -3 -18 -12 -45 -20 -59
-7 -14 -16 -37 -20 -52 -5 -21 -3 -25 9 -21 10 4 15 0 15 -10 0 -9 -6 -16 -14
-16 -8 0 -21 -9 -29 -20 -8 -11 -17 -17 -20 -13 -4 3 -7 1 -7 -5 0 -6 5 -14
10 -17 19 -12 10 -26 -12 -21 -13 3 -17 3 -10 0 17 -8 15 -27 -3 -20 -9 3 -15
0 -15 -9 0 -8 -5 -15 -10 -15 -6 0 -21 -10 -33 -21 -12 -12 -17 -19 -10 -15
12 7 30 -31 19 -41 -3 -4 -6 1 -6 10 0 21 -16 22 -24 1 -3 -8 -2 -12 4 -9 6 3
10 -1 10 -10 0 -9 -4 -14 -8 -11 -11 7 -23 -2 -98 -70 -36 -32 -69 -59 -73
-59 -7 0 -120 -96 -162 -136 -24 -24 -146 -95 -197 -115 -57 -22 -48 -28 14
-9 98 29 285 165 331 240 9 15 11 15 7 3 -9 -28 13 -21 55 17 42 38 54 43 44
19 -3 -9 0 -20 8 -25 15 -9 59 33 59 55 0 6 16 35 35 65 19 29 35 59 35 67 0
9 5 12 12 8 6 -4 8 -3 5 3 -4 6 -1 13 7 16 7 3 19 25 27 50 8 30 17 43 26 40
7 -3 13 1 13 9 0 7 13 28 29 45 20 23 28 39 24 55 -4 21 -3 21 9 6 13 -15 15
-15 28 5 12 21 12 21 -5 7 -17 -14 -18 -13 -11 22 4 21 2 39 -3 43 -7 4 -7 12
1 25 7 10 15 17 18 15 4 -2 14 13 24 33 13 29 13 33 1 18 -8 -11 -15 -24 -15
-30 0 -5 -3 -7 -6 -3 -4 3 4 27 16 52 17 35 25 43 32 33 6 -9 7 -6 3 9 -7 24
18 93 34 93 6 0 8 -8 5 -17 -7 -23 33 23 46 52 8 18 9 18 9 2 1 -13 14 -3 46
34 29 34 45 62 44 78 0 24 -1 24 -9 6 -8 -19 -9 -19 -9 3 -1 12 -1 24 -1 27 1
10 -28 35 -40 35 -6 0 -8 5 -3 13 4 6 8 14 8 17 0 3 7 33 14 67 7 33 11 67 8
75 -4 10 -6 9 -6 -3z m-21 -269 c0 -5 -4 -10 -10 -10 -5 0 -10 5 -10 10 0 6 5
10 10 10 6 0 10 -4 10 -10z m-247 -435 c-3 -9 -8 -14 -10 -11 -3 3 -2 9 2 15
9 16 15 13 8 -4z m20 -40 c-3 -9 -8 -14 -10 -11 -3 3 -2 9 2 15 9 16 15 13 8
-4z"/>
<path d="M1701 5024 c0 -11 3 -14 6 -6 3 7 2 16 -1 19 -3 4 -6 -2 -5 -13z"/>
<path d="M2660 4989 c3 -3 17 -13 32 -22 23 -14 26 -15 22 -2 -4 8 -10 15 -14
15 -5 0 -17 3 -27 7 -10 3 -16 4 -13 2z"/>
<path d="M1693 4885 c0 -22 2 -30 4 -17 2 12 2 30 0 40 -3 9 -5 -1 -4 -23z"/>
<path d="M2146 4720 c8 -30 64 -114 71 -106 5 4 -18 45 -65 112 -11 17 -12 17
-6 -6z"/>
<path d="M4955 4733 c-11 -3 -24 -10 -30 -15 -12 -13 35 0 50 13 5 5 7 8 5 8
-3 -1 -14 -3 -25 -6z"/>
<path d="M2644 4703 c9 -9 135 -42 164 -42 12 -1 22 -7 22 -15 0 -19 110 -186
145 -220 16 -16 24 -26 17 -22 -31 18 -55 -57 -69 -211 -4 -40 -2 -53 9 -53
28 0 39 18 50 81 11 67 25 87 42 64 6 -7 37 -43 70 -78 54 -60 61 -64 87 -57
17 5 29 5 29 -1 0 -5 8 -17 19 -28 10 -10 37 -43 59 -72 22 -30 62 -76 88
-104 60 -64 154 -188 154 -203 0 -7 8 -12 18 -12 9 -1 33 -9 52 -20 83 -45 58
-44 349 -17 19 2 25 -3 28 -25 2 -15 11 -46 19 -70 44 -121 64 -271 64 -473
-1 -191 -4 -211 -38 -221 -15 -4 -30 -7 -33 -6 -3 0 -3 -12 -1 -29 2 -16 8
-26 13 -23 9 5 -13 -61 -31 -97 -9 -16 -9 -20 0 -14 12 7 60 106 60 124 0 5 5
13 11 17 8 4 9 0 4 -15 -3 -11 -2 -28 3 -37 7 -12 11 -2 16 37 3 30 10 77 16
104 12 66 13 288 1 301 -6 5 -6 26 1 54 5 25 9 88 9 140 -2 103 -4 103 46 12
13 -22 41 -96 64 -164 23 -68 46 -129 51 -136 7 -7 8 -34 4 -70 -4 -31 -9 -90
-12 -131 -2 -40 -11 -85 -18 -100 -24 -45 -56 -129 -56 -148 0 -11 -9 -3 -25
23 -18 30 -33 43 -56 48 -44 9 -45 8 -46 -14 -3 -31 -48 -89 -188 -241 -8 -9
-15 -20 -15 -25 0 -5 -14 -22 -31 -38 -17 -16 -38 -40 -47 -54 -9 -14 -41 -37
-72 -51 -68 -33 -95 -50 -187 -121 -40 -30 -89 -66 -109 -80 -20 -14 -59 -46
-87 -72 -29 -26 -58 -48 -64 -48 -14 0 -16 -7 -13 -65 1 -22 8 -50 16 -63 14
-21 14 -26 0 -47 -9 -14 -16 -32 -16 -42 0 -26 -69 -90 -80 -74 -5 9 -11 4
-18 -16 -6 -15 -25 -44 -42 -63 l-31 -35 -23 28 -22 28 -27 -25 c-15 -14 -27
-36 -27 -49 l0 -25 53 15 c38 11 66 29 105 66 55 55 62 55 35 4 -9 -18 -16
-44 -15 -60 2 -20 -4 -30 -21 -38 -34 -15 -66 -119 -37 -119 11 0 40 52 40 72
0 18 39 61 75 82 17 10 47 40 68 67 21 27 43 47 48 44 5 -4 6 0 4 7 -3 8 1 22
10 33 13 17 16 18 26 5 8 -12 9 -9 5 13 -5 20 -3 27 9 27 8 0 15 4 15 9 0 5
23 23 50 41 28 18 59 43 69 56 10 13 24 24 30 24 6 0 11 4 11 8 0 14 110 66
119 56 14 -15 22 -64 11 -64 -5 0 -10 -7 -10 -16 0 -17 -63 -110 -89 -131 -8
-7 -11 -13 -7 -13 4 0 -5 -16 -20 -36 -18 -23 -33 -34 -45 -31 -12 3 -16 0
-12 -9 7 -18 -125 -151 -158 -159 -14 -3 -30 -18 -37 -33 -12 -25 -94 -92
-117 -95 -5 -1 -21 -13 -35 -27 -35 -35 -79 -53 -95 -40 -7 6 -15 28 -19 50
-10 65 -24 54 -22 -20 1 -64 -1 -70 -19 -70 -21 1 -57 24 -55 35 1 4 -2 10 -6
13 -4 4 -4 -6 0 -23 11 -46 30 -55 97 -48 41 4 59 2 59 -6 0 -10 -13 -15 -32
-12 -5 0 -8 -5 -8 -13 0 -17 -27 -29 -43 -19 -7 3 -9 3 -5 -2 11 -11 -12 -36
-25 -28 -5 3 -7 2 -4 -4 3 -5 -7 -21 -24 -34 -16 -13 -42 -34 -56 -46 -33 -29
-43 -22 -43 32 0 34 -5 47 -22 59 -20 14 -21 18 -7 42 8 15 42 57 76 93 86 91
184 203 181 206 -2 2 -40 -7 -86 -18 -80 -20 -96 -38 -26 -30 32 3 34 2 24
-16 -5 -11 -15 -23 -20 -26 -6 -3 -10 -14 -10 -24 0 -9 -17 -31 -37 -47 -20
-16 -53 -44 -72 -63 -20 -18 -46 -40 -58 -48 -13 -9 -23 -25 -24 -37 0 -11 -3
-15 -6 -8 -7 18 -62 15 -81 -5 -28 -28 -40 -59 -30 -77 10 -17 -8 -121 -24
-142 -5 -7 9 -26 37 -50 29 -25 45 -47 45 -62 0 -15 8 -26 25 -32 14 -5 31
-22 37 -37 25 -56 60 -101 105 -134 51 -36 46 -22 -16 46 -17 19 -31 37 -31
40 0 4 -15 26 -34 51 -34 45 -36 53 -21 88 5 11 3 32 -3 50 -7 17 -9 32 -5 34
5 1 23 12 42 25 19 12 48 31 66 42 34 21 113 86 149 121 11 12 39 30 61 42 22
11 67 42 100 69 45 37 60 55 60 75 0 24 10 35 119 120 16 13 34 28 40 33 6 6
25 19 41 31 27 19 33 20 52 7 27 -18 47 -12 96 30 l39 32 -20 53 c-11 28 -16
50 -12 47 4 -3 10 2 14 10 3 8 13 15 21 15 9 0 13 5 10 10 -3 6 -1 10 5 10 6
0 9 4 6 8 -2 4 4 8 14 9 12 1 27 -11 40 -33 23 -36 41 -42 59 -20 8 10 5 22
-14 50 -30 44 -31 54 -7 75 10 9 21 24 25 34 6 17 9 17 29 3 26 -18 71 -21 99
-6 28 16 25 -11 -6 -44 -14 -15 -25 -34 -25 -42 0 -8 -12 -38 -26 -67 -15 -29
-29 -68 -31 -87 -2 -19 -12 -52 -21 -72 -17 -37 -17 -37 -67 -32 -45 5 -53 2
-73 -20 -12 -14 -27 -26 -34 -26 -6 0 -8 -3 -4 -7 7 -7 -25 -25 -121 -68 -47
-21 -54 -22 -68 -9 -8 9 -13 19 -10 24 6 9 -15 60 -24 60 -11 0 -5 -75 9 -100
18 -34 30 -41 65 -34 43 8 171 63 235 102 l55 33 3 -25 c2 -13 -6 -41 -17 -62
-24 -44 -26 -54 -10 -54 5 0 15 13 20 29 6 16 17 32 25 35 11 4 13 16 8 48 -4
29 -2 39 4 29 7 -10 15 4 30 50 11 35 24 79 27 97 4 18 13 45 21 60 8 15 14
33 14 40 0 6 4 12 9 12 5 0 12 12 16 28 3 15 13 41 21 57 7 17 15 40 17 52 4
29 99 233 108 233 4 0 10 -10 12 -23 2 -12 5 -2 5 23 0 27 15 85 37 145 20 55
40 114 45 130 12 47 21 65 32 65 6 0 8 6 5 14 -3 8 3 37 14 65 10 28 19 66 19
84 0 18 4 37 9 43 5 5 14 27 21 49 7 22 17 46 23 53 5 7 7 15 4 19 -6 5 -20
-24 -40 -80 -4 -10 -11 -15 -17 -12 -6 4 -7 13 -1 23 5 9 12 36 16 60 4 23 10
42 15 42 4 0 10 10 13 23 14 55 40 116 53 121 8 3 14 -1 14 -9 0 -8 -4 -15 -9
-15 -9 0 -42 -132 -35 -140 3 -2 7 6 11 18 3 12 8 22 12 22 4 0 16 19 26 43
l19 42 16 -52 c16 -54 30 -77 30 -51 0 8 -7 38 -15 66 -15 48 -14 58 1 113 10
35 24 64 35 70 18 9 148 4 158 -7 3 -3 -15 -23 -39 -45 -28 -25 -34 -34 -17
-23 24 15 30 15 38 3 7 -11 9 -11 9 3 0 10 9 23 20 30 33 21 23 45 -32 83 -93
62 -91 60 -84 100 5 25 12 35 21 32 19 -8 25 2 15 28 -11 29 14 43 36 20 21
-20 57 -19 77 3 10 10 17 21 17 25 0 21 178 266 194 267 4 0 1 -11 -8 -24 -8
-14 -24 -40 -34 -58 -11 -18 -29 -50 -42 -70 -12 -21 -17 -38 -12 -38 6 0 13
9 17 19 9 31 103 169 117 173 7 3 34 -8 60 -23 56 -33 180 -79 214 -79 13 0
24 -4 24 -9 0 -5 12 -11 27 -13 23 -3 13 -10 -65 -50 -51 -27 -101 -48 -112
-48 -11 0 -20 -4 -20 -8 0 -11 -163 -37 -184 -29 -9 4 -16 2 -16 -3 0 -12 300
-12 315 -1 6 4 48 18 95 31 102 27 168 47 195 59 98 44 155 70 155 73 0 2 -87
3 -193 4 -150 0 -206 4 -257 18 -36 10 -70 21 -77 24 -6 4 57 7 140 7 84 0
170 4 192 8 22 4 64 13 94 18 47 10 127 38 109 39 -4 0 -37 -7 -74 -15 -36 -9
-69 -14 -71 -11 -3 3 8 22 24 43 69 88 106 172 117 263 6 52 6 54 -8 30 -9
-14 -15 -37 -16 -51 0 -47 -85 -200 -140 -254 l-51 -50 -162 0 c-131 0 -174 4
-224 19 -35 11 -63 25 -63 31 0 15 189 202 245 244 22 16 59 47 82 68 40 39
45 40 125 46 113 7 222 53 359 149 85 60 73 65 -19 9 -161 -100 -196 -114
-312 -120 -58 -3 -125 -5 -150 -4 -146 4 -269 11 -300 17 -44 10 -149 49 -215
82 -28 13 -57 24 -66 24 -8 0 -22 6 -29 13 -12 10 -13 10 -4 -1 21 -24 -6 -71
-53 -94 -24 -12 -43 -25 -43 -30 0 -4 -27 -39 -60 -77 -77 -89 -112 -142 -106
-158 3 -7 -1 -43 -9 -80 -8 -37 -15 -94 -15 -125 l0 -57 -28 10 c-17 6 -37 26
-52 53 -13 24 -46 64 -74 87 l-51 44 -90 -1 c-53 -1 -124 -10 -175 -22 -144
-35 -171 -36 -219 -9 -40 23 -121 107 -206 212 -22 28 -42 52 -45 55 -17 17
-114 136 -215 265 -65 83 -150 188 -190 235 -80 95 -125 161 -125 186 0 12 -6
14 -30 9 -20 -4 -53 1 -95 14 -66 22 -94 26 -81 14z m2326 -683 c0 -5 -7 -7
-15 -4 -8 4 -15 8 -15 10 0 2 7 4 15 4 8 0 15 -4 15 -10z m238 -29 c-35 -26
-80 -53 -81 -49 -1 2 -7 13 -14 24 -17 31 -1 41 63 42 54 0 54 0 32 -17z
m-131 3 c-3 -3 -12 -4 -19 -1 -8 3 -5 6 6 6 11 1 17 -2 13 -5z m348 -503 c-19
-18 -195 -80 -300 -106 -115 -28 -150 -28 -63 0 29 10 82 34 118 53 36 19 76
41 90 48 28 16 170 20 155 5z m-914 -33 c1 -18 3 -43 4 -55 2 -18 -3 -23 -22
-23 -33 0 -63 17 -63 36 0 19 50 74 67 74 8 0 14 -14 14 -32z m-111 -28 c0 -5
-4 -10 -10 -10 -5 0 -10 5 -10 10 0 6 5 10 10 10 6 0 10 -4 10 -10z m11 -87
c-9 -16 -10 -14 -11 12 0 21 3 26 11 18 8 -8 8 -16 0 -30z m33 -8 c3 -8 1 -15
-4 -15 -6 0 -10 7 -10 15 0 8 2 15 4 15 2 0 6 -7 10 -15z m6 -55 c-6 -12 -14
-20 -17 -17 -2 3 1 14 8 26 7 11 15 18 17 16 2 -2 -2 -13 -8 -25z m-94 -89
c-12 -91 -25 -121 -50 -121 -19 0 -24 6 -27 33 -2 17 -2 54 1 80 4 39 10 51
30 62 38 20 54 2 46 -54z m129 -31 l29 -30 -45 0 c-54 0 -58 3 -51 35 6 34 32
32 67 -5z m-297 -501 c-2 -46 -24 -104 -42 -107 -18 -4 -22 23 -6 33 6 3 10
12 10 19 0 16 28 86 34 86 3 0 4 -14 4 -31z m-48 -151 c0 -22 -13 -62 -38
-118 -16 -36 -14 -13 4 69 16 68 34 95 34 49z m-66 -242 c-3 -15 -8 -25 -11
-23 -2 3 -1 17 3 31 3 15 8 25 11 23 2 -3 1 -17 -3 -31z m-319 -164 c-2 -2 -9
-5 -17 -6 -39 -8 -248 -122 -248 -136 0 -5 -9 -11 -19 -15 -11 -3 -41 -26 -68
-50 -26 -24 -50 -42 -52 -39 -5 5 90 93 101 94 4 0 29 20 55 45 80 75 120 99
161 97 29 -2 34 0 22 9 -13 9 -12 10 3 5 11 -3 25 1 34 10 13 12 18 13 24 3 4
-8 6 -15 4 -17z m-3 -54 c-7 -7 -12 -8 -12 -2 0 14 12 26 19 19 2 -3 -1 -11
-7 -17z m-462 -167 c0 -10 -9 -29 -20 -42 l-20 -24 6 30 c9 47 13 55 24 55 5
0 10 -9 10 -19z m6 -85 c-37 -52 -50 -66 -63 -66 -10 0 -10 6 0 28 18 41 47
71 67 69 16 -1 16 -4 -4 -31z m-68 -93 c-2 -9 -9 -18 -16 -19 -7 -1 -8 0 -3 2
6 3 7 12 4 20 -3 8 0 14 7 14 6 0 10 -8 8 -17z m-218 -63 c-20 -13 -33 -13
-25 0 3 6 14 10 23 10 15 0 15 -2 2 -10z m-345 -638 c-3 -3 -11 0 -18 7 -9 10
-8 11 6 5 10 -3 15 -9 12 -12z"/>
<path d="M2880 4694 l-25 -15 25 5 c14 3 28 6 33 6 4 0 7 5 7 10 0 14 -10 12
-40 -6z"/>
<path d="M4790 4702 c0 -4 17 -6 38 -4 58 5 62 10 10 11 -27 1 -48 -3 -48 -7z"/>
<path d="M8895 4590 c-3 -5 -14 -10 -23 -10 -16 0 -78 -30 -222 -107 -66 -35
-314 -186 -350 -212 -14 -10 -56 -40 -93 -66 -37 -26 -66 -49 -63 -52 2 -2 62
35 133 83 113 77 287 184 299 184 2 0 21 11 42 24 64 40 252 136 267 136 9 0
15 -14 18 -37 l4 -38 0 40 c-1 23 3 46 7 53 4 7 3 12 -3 12 -5 0 -13 -4 -16
-10z"/>
<path d="M2252 4548 c-19 -19 -15 -26 28 -48 l40 -20 0 24 c0 14 -9 32 -22 40
-27 19 -31 19 -46 4z"/>
<path d="M4071 4549 c-13 -5 -21 -12 -18 -15 3 -3 18 1 34 10 31 17 21 20 -16
5z"/>
<path d="M5440 4514 c-36 -24 -85 -54 -110 -66 -25 -12 -58 -30 -73 -41 -32
-22 -60 -26 -217 -32 -126 -5 -140 -8 -140 -28 0 -8 -7 -20 -15 -27 -11 -9
-12 -16 -4 -26 6 -7 8 -18 4 -24 -9 -15 -35 -12 -35 4 0 13 -4 13 -27 0 -52
-27 -178 -10 -295 39 -21 9 -38 13 -38 9 0 -9 64 -36 144 -62 36 -11 222 -15
291 -6 71 10 112 20 134 35 36 23 122 51 135 44 6 -3 8 -2 3 2 -9 10 69 58 82
51 13 -8 149 85 196 133 21 22 37 41 35 40 -3 -1 -34 -21 -70 -45z"/>
<path d="M8036 4488 c2 -3 -10 -11 -26 -17 -17 -5 -30 -12 -30 -14 0 -9 36 -3
43 7 5 8 10 7 16 -3 10 -15 26 -8 41 18 8 16 5 18 -19 17 -16 -1 -27 -4 -25
-8z"/>
<path d="M8885 4450 c-11 -52 -11 -51 -28 -100 -22 -66 -111 -267 -143 -325
-16 -27 -45 -72 -66 -100 -21 -27 -38 -54 -38 -58 0 -27 -212 -302 -344 -447
-104 -113 -103 -119 0 -15 66 67 162 176 214 244 52 67 96 117 98 111 3 -7 0
-15 -5 -19 -5 -3 -9 -60 -8 -126 1 -98 5 -128 22 -166 30 -68 102 -111 185
-111 93 -1 269 104 392 232 42 44 80 80 84 80 4 1 19 19 34 40 15 22 35 40 43
40 13 0 15 22 15 140 0 77 -2 140 -5 140 -3 0 -19 -24 -35 -52 -17 -29 -51
-80 -76 -113 -24 -33 -53 -73 -63 -90 -26 -42 -74 -102 -156 -198 -134 -155
-235 -169 -309 -43 -21 36 -26 57 -26 114 0 58 4 73 23 94 12 13 29 44 37 68
8 24 27 55 42 68 15 14 25 28 23 32 -9 15 210 221 243 229 9 2 24 14 35 27 10
13 27 24 37 24 10 0 31 10 47 23 25 20 90 58 160 91 18 9 23 20 23 50 l0 39
-67 -7 c-37 -4 -75 -14 -84 -22 -8 -7 -23 -14 -32 -14 -21 0 -40 -10 -143 -77
-45 -29 -84 -53 -88 -53 -4 0 -19 -9 -34 -19 -27 -20 -82 -19 -82 0 0 5 13 42
29 83 34 84 64 192 58 209 -2 7 -7 -4 -12 -23z"/>
<path d="M7883 4365 c5 -14 39 -13 44 1 2 7 -6 11 -22 10 -14 0 -23 -5 -22
-11z"/>
<path d="M2290 4307 c0 -31 31 -80 89 -140 31 -32 57 -62 59 -68 2 -5 -12 -35
-31 -66 -73 -121 -94 -191 -89 -293 l3 -45 42 45 c23 25 55 54 71 64 36 23
159 136 166 152 3 6 17 -5 31 -26 24 -34 26 -40 14 -73 -29 -85 -171 -187
-260 -187 -64 0 -161 54 -236 132 -31 32 -60 58 -63 58 -19 0 0 -35 38 -71 25
-24 42 -48 39 -55 -3 -9 2 -14 13 -14 11 0 33 -9 49 -20 36 -24 26 -25 -34 -4
-73 25 -202 110 -286 189 -90 85 -119 99 -53 27 98 -108 199 -185 315 -239 71
-34 86 -37 158 -36 90 1 148 20 210 66 35 27 57 51 128 139 17 21 17 35 0 92
-4 15 -2 18 13 12 79 -32 187 -65 229 -71 61 -8 49 6 -20 24 -76 19 -193 68
-270 113 -108 63 -252 184 -265 221 -14 43 -59 99 -60 74z m238 -272 c-2 -2
-15 -5 -28 -7 -14 -2 -40 -12 -59 -22 -36 -19 -35 -14 6 42 l24 32 30 -21 c17
-12 29 -23 27 -24z"/>
<path d="M1282 4233 c-7 -3 -19 -18 -27 -34 -27 -51 -75 -97 -128 -124 -76
-37 -118 -65 -173 -114 -27 -23 -65 -52 -84 -62 -46 -26 -94 -55 -157 -96 -28
-18 -56 -33 -61 -33 -5 0 -15 -7 -22 -14 -6 -8 -28 -20 -48 -27 -20 -7 -53
-25 -72 -40 -19 -16 -39 -29 -45 -29 -5 0 -32 -11 -60 -24 -61 -29 -143 -62
-210 -86 -27 -10 -68 -28 -90 -39 -21 -12 -47 -21 -56 -21 -36 0 -49 -12 -49
-46 0 -35 8 -42 26 -24 5 5 37 15 69 21 33 6 83 21 110 34 28 13 63 27 79 31
15 3 50 17 77 30 27 13 55 24 63 24 8 0 18 5 21 10 4 6 56 36 117 66 61 31
117 62 125 69 7 8 23 17 36 21 12 3 30 14 40 23 18 15 64 43 151 91 22 12 46
29 54 36 7 8 24 17 38 20 70 18 114 -34 114 -134 0 -54 5 -73 36 -128 65 -116
148 -154 294 -135 91 11 94 12 150 38 25 11 56 23 70 26 59 14 210 131 210
162 0 7 -7 21 -15 29 -14 14 -24 10 -95 -39 -44 -30 -82 -55 -86 -55 -3 0 -20
-11 -38 -25 -18 -14 -48 -28 -67 -32 -19 -3 -56 -17 -84 -30 -59 -27 -108 -29
-161 -7 -78 32 -110 78 -120 175 -9 86 19 250 52 306 14 24 24 45 24 48 -1 3
4 22 10 43 12 43 13 102 3 101 -5 0 -14 -3 -21 -6z"/>
<path d="M4551 4217 c2 -1 13 -9 24 -17 19 -14 19 -14 6 3 -7 9 -18 17 -24 17
-6 0 -8 -1 -6 -3z"/>
<path d="M5523 4180 c-13 -5 -23 -12 -23 -15 0 -9 16 -5 36 10 22 16 19 18
-13 5z"/>
<path d="M5340 4104 c-35 -16 -44 -23 -25 -19 43 8 85 26 85 36 0 5 -1 9 -2 8
-2 0 -28 -12 -58 -25z"/>
<path d="M1960 4071 c0 -6 4 -13 10 -16 6 -3 7 1 4 9 -7 18 -14 21 -14 7z"/>
<path d="M5258 4073 c7 -3 16 -2 19 1 4 3 -2 6 -13 5 -11 0 -14 -3 -6 -6z"/>
<path d="M1980 4023 c0 -5 7 -18 15 -29 13 -18 14 -18 8 4 -5 22 -23 41 -23
25z"/>
<path d="M6210 3941 c-11 -23 -25 -53 -31 -68 -8 -23 -8 -24 6 -13 8 7 15 17
15 22 0 5 9 28 20 50 26 54 18 62 -10 9z"/>
<path d="M3235 3929 c-4 -6 -5 -12 -2 -15 7 -7 37 7 37 17 0 13 -27 11 -35 -2z"/>
<path d="M2970 3870 c0 -5 5 -10 11 -10 5 0 7 5 4 10 -3 6 -8 10 -11 10 -2 0
-4 -4 -4 -10z"/>
<path d="M3088 3874 c-3 -2 -25 -8 -49 -13 l-44 -9 56 -1 c61 -1 119 8 119 18
0 7 -75 12 -82 5z"/>
<path d="M3177 3808 c-13 -24 -30 -73 -38 -111 -11 -61 -11 -69 4 -84 16 -16
17 -13 17 45 0 41 8 83 25 127 13 36 22 65 21 65 -2 0 -15 -19 -29 -42z"/>
<path d="M2585 3700 c-4 -11 -22 -41 -41 -65 -19 -25 -34 -50 -34 -55 0 -6 -5
-10 -10 -10 -6 0 -28 -12 -51 -27 -39 -26 -41 -26 -122 -15 -45 6 -95 14 -112
17 -28 6 -29 5 -11 -9 48 -39 187 -40 263 -1 39 20 96 82 123 134 23 45 24 51
11 51 -5 0 -13 -9 -16 -20z"/>
<path d="M1940 3658 c0 -7 23 -40 50 -73 43 -51 47 -60 32 -66 -30 -11 -140
-132 -242 -264 -19 -25 -50 -63 -67 -84 -18 -21 -33 -43 -33 -48 0 -6 -10 -18
-21 -29 -12 -10 -37 -41 -55 -69 -56 -82 -82 -119 -103 -147 -12 -14 -21 -30
-21 -35 0 -6 -18 -35 -40 -67 -22 -31 -40 -64 -40 -73 0 -22 -40 -103 -50
-103 -5 0 -14 -26 -20 -57 -6 -32 -20 -82 -31 -111 -10 -29 -19 -63 -19 -75 0
-13 -5 -28 -11 -34 -7 -7 -10 -36 -7 -76 3 -55 10 -74 41 -121 21 -32 46 -60
55 -63 9 -3 25 -13 35 -21 26 -23 103 -17 138 11 71 54 157 154 195 229 9 18
27 47 39 63 12 17 25 44 29 60 4 17 19 47 32 68 14 22 27 49 30 60 7 37 26 81
45 102 10 11 20 36 24 55 3 19 21 67 40 105 18 39 36 91 39 116 5 43 19 85 51
149 7 14 15 50 19 80 4 30 20 82 36 115 26 54 35 105 31 177 -1 10 -33 50 -72
90 -39 40 -83 90 -97 111 -26 40 -32 44 -32 25z m39 -413 c49 -25 54 -61 19
-136 -16 -35 -32 -86 -35 -114 -3 -27 -18 -73 -34 -102 -16 -29 -29 -63 -29
-75 0 -30 -21 -85 -48 -128 -12 -19 -22 -39 -23 -45 -2 -30 -10 -51 -27 -74
-24 -33 -54 -91 -47 -91 10 0 -25 -72 -49 -101 -13 -16 -27 -42 -31 -58 -3
-16 -17 -41 -31 -56 -13 -14 -33 -44 -44 -66 -24 -46 -112 -119 -145 -119 -54
0 -121 93 -112 159 24 185 32 219 63 282 19 37 34 70 34 75 0 5 14 26 31 47
17 20 35 53 40 72 5 18 24 52 42 74 18 21 46 63 62 91 17 29 44 69 61 89 17
20 41 55 53 79 12 23 25 42 30 42 4 0 22 23 40 50 18 28 37 50 42 50 5 0 22
13 38 29 42 43 59 48 100 26z"/>
<path d="M3150 3550 c0 -23 30 -80 58 -109 43 -46 50 -38 8 9 -20 23 -39 54
-43 71 -5 29 -23 51 -23 29z"/>
<path d="M3695 3519 c-3 -8 -9 -34 -14 -59 -20 -96 -53 -227 -71 -275 -10 -27
-23 -67 -30 -87 -14 -46 -36 -65 -26 -22 11 41 35 280 34 339 0 75 -14 18 -23
-92 -7 -87 -27 -246 -42 -333 l-8 -45 -60 -6 c-38 -4 -83 -17 -121 -37 -34
-17 -64 -29 -66 -27 -2 3 -19 -10 -37 -29 -31 -32 -32 -37 -42 -157 -8 -95 -7
-142 3 -204 l13 -80 5 54 c5 50 8 55 35 64 34 12 52 31 60 68 3 14 18 37 33
51 136 132 162 161 162 176 0 5 7 15 15 22 8 7 15 28 15 48 0 19 20 85 44 146
38 95 56 145 61 166 1 3 11 37 22 75 26 86 32 113 43 190 8 58 6 83 -5 54z"/>
<path d="M6975 3509 c-11 -17 1 -21 15 -4 8 9 8 15 2 15 -6 0 -14 -5 -17 -11z"/>
<path d="M3006 3459 c4 -6 46 -30 93 -52 78 -36 95 -40 187 -45 61 -3 104 -1
107 5 4 6 -19 10 -61 10 -61 1 -100 6 -142 19 -8 3 -16 5 -17 5 -2 0 -37 15
-79 34 -81 37 -100 42 -88 24z"/>
<path d="M2335 3399 c12 -40 35 -79 45 -79 14 0 13 4 -11 50 -25 47 -45 64
-34 29z"/>
<path d="M4696 3388 l-17 -33 20 24 c18 20 27 41 18 41 -1 0 -11 -15 -21 -32z"/>
<path d="M2270 3345 c19 -14 39 -25 44 -25 6 0 -6 11 -26 25 -20 14 -40 25
-44 25 -5 0 7 -11 26 -25z"/>
<path d="M2430 3272 c0 -5 11 -14 25 -20 14 -6 25 -10 25 -8 0 2 -11 11 -25
20 -14 9 -25 13 -25 8z"/>
<path d="M2598 3254 c-3 -3 -28 -9 -55 -14 l-48 -8 41 -1 c22 0 49 6 60 14 10
8 16 15 13 15 -3 0 -8 -3 -11 -6z"/>
<path d="M3135 3209 c-54 -44 -120 -133 -181 -244 -138 -254 -199 -378 -186
-383 6 -2 7 -16 2 -35 -5 -18 -11 -63 -13 -102 -6 -84 -13 -105 -37 -105 -10
0 -26 -3 -36 -7 -14 -5 -16 -3 -10 12 6 18 6 18 -12 2 -10 -9 -32 -17 -48 -17
-62 0 -192 65 -293 147 l-35 28 32 -45 c38 -56 87 -110 98 -110 4 0 -3 12 -17
26 -13 15 -19 25 -14 22 6 -2 41 -18 79 -36 59 -28 160 -52 207 -50 49 3 51 0
30 -40 -29 -56 -44 -67 -73 -49 -13 8 -39 20 -58 26 -19 6 -60 30 -90 53 l-55
41 26 -33 c15 -20 59 -51 112 -78 69 -35 85 -47 77 -58 -10 -10 -6 -11 19 -1
17 6 31 17 31 24 0 7 7 13 16 13 8 0 13 3 10 8 -2 4 10 37 27 72 24 52 31 81
34 145 3 44 11 94 19 112 8 18 16 55 18 83 2 28 10 58 18 68 24 30 58 99 51
106 -3 3 -1 6 5 6 6 0 21 20 32 45 13 28 25 43 32 39 6 -4 8 -3 4 4 -8 13 27
83 54 107 11 10 20 24 20 31 0 20 60 84 79 84 12 0 17 8 16 28 0 20 5 27 17
26 10 -1 15 3 11 9 -3 5 9 23 28 38 20 17 28 28 19 28 -8 0 -37 -18 -65 -40z"/>
<path d="M5417 3173 c-4 -3 -7 -16 -7 -28 0 -36 -21 -52 -60 -45 l-35 6 28 7
c15 4 27 12 27 17 0 10 -57 -7 -77 -23 -7 -5 -13 -20 -13 -33 0 -27 -17 -32
-26 -9 -8 19 -79 18 -95 -2 -6 -7 -20 -13 -31 -13 -132 0 -261 -241 -227 -425
19 -101 -14 -78 -51 36 l-22 67 22 48 c31 71 7 41 -33 -41 -41 -84 -75 -184
-86 -254 -12 -75 2 -62 17 15 12 65 46 175 62 204 7 13 10 12 16 -5 30 -83 49
-123 74 -160 17 -24 30 -47 30 -50 0 -4 13 -24 29 -44 31 -39 32 -75 5 -116
-8 -11 -14 -27 -14 -37 0 -41 -54 -7 -116 73 -24 32 -44 65 -44 73 0 19 -19
22 -21 4 -3 -29 3 -60 22 -110 10 -29 19 -60 19 -68 1 -28 45 -108 80 -147 68
-74 98 -116 93 -129 -3 -8 -10 -14 -17 -14 -15 0 -46 -36 -46 -55 0 -8 -12
-51 -27 -97 -14 -46 -25 -97 -24 -113 1 -17 -3 -52 -9 -79 -27 -120 -62 -354
-75 -506 -15 -166 -14 -209 3 -287 6 -30 6 -49 -3 -66 -6 -12 -18 -44 -25 -69
-15 -49 -34 -68 -44 -42 -3 8 -13 85 -22 171 -14 129 -21 161 -37 178 -11 11
-16 14 -12 6 6 -10 4 -12 -5 -6 -20 12 -30 -15 -30 -81 0 -65 -14 -90 -44 -78
-10 4 -16 18 -17 38 -1 17 -11 -16 -24 -74 -30 -140 -73 -307 -85 -330 -21
-39 -22 -39 133 -55 38 -4 65 -13 78 -26 10 -10 19 -14 19 -9 0 6 7 10 15 10
15 0 15 -12 -2 -72 -8 -33 15 -18 27 16 6 19 18 40 26 47 8 6 12 19 9 28 -5
16 21 98 43 137 10 17 11 16 9 -10 -1 -16 4 -31 11 -33 8 -3 12 7 12 31 0 19
4 38 10 41 5 3 62 -13 126 -35 104 -37 118 -40 132 -27 18 18 8 52 -12 44 -8
-3 -68 12 -133 34 l-119 39 4 35 c2 19 8 35 13 35 6 0 56 -26 112 -58 134 -76
137 -77 137 -49 0 24 -45 54 -173 117 l-67 33 4 66 c3 60 3 63 -7 29 -6 -21
-14 -38 -18 -38 -14 0 -21 21 -11 33 5 7 12 77 16 157 5 123 31 339 62 520 l8
45 7 -49 c4 -27 14 -53 21 -57 20 -13 61 -11 83 5 11 7 53 25 93 39 65 22 76
24 99 12 18 -10 32 -11 45 -4 30 16 22 -8 -43 -134 l-61 -118 118 -155 c65
-86 145 -180 177 -210 33 -30 58 -54 54 -54 -3 0 -40 18 -82 40 -41 22 -85 42
-98 44 -12 3 -32 8 -44 12 -39 11 -25 -4 15 -16 63 -21 261 -132 277 -156 l15
-24 -52 21 c-29 12 -60 24 -68 27 -8 3 -43 23 -78 44 -62 37 -89 48 -77 28 3
-5 2 -10 -4 -10 -5 0 -11 5 -13 12 -3 9 -6 9 -12 0 -4 -7 0 -15 11 -18 69 -24
232 -114 304 -168 67 -50 87 -70 92 -94 4 -22 19 -40 47 -58 37 -25 42 -26 58
-11 13 12 22 13 35 5 16 -9 16 -5 -5 31 -22 40 -22 42 -5 56 11 7 25 11 33 8
8 -3 21 0 30 7 11 10 18 10 26 2 19 -19 28 -14 28 17 0 22 12 37 60 75 33 26
58 51 55 55 -2 5 -33 11 -67 14 -86 8 -93 12 -118 65 -30 63 -126 226 -169
286 -27 37 -32 52 -24 65 6 9 17 17 25 19 15 3 18 -6 48 -125 6 -24 16 -43 23
-43 7 0 23 -18 37 -40 27 -43 57 -52 84 -24 55 55 16 206 -80 313 l-45 51 12
57 c14 71 6 226 -17 303 -19 66 -102 230 -116 230 -13 0 -4 -28 46 -145 44
-101 68 -182 57 -189 -3 -2 -20 -7 -37 -10 -30 -7 -31 -6 -74 86 -24 51 -52
105 -63 121 -35 51 -36 17 -1 -59 19 -41 34 -77 34 -78 0 -2 -27 7 -61 21 -58
23 -62 24 -80 7 -25 -23 -25 -27 17 -108 30 -56 34 -73 25 -88 -16 -25 -14
-47 3 -25 18 24 21 22 41 -19 19 -40 40 -52 65 -36 13 8 20 8 28 0 8 -8 16 -7
27 2 13 11 16 28 13 71 -3 54 -1 59 25 74 43 26 57 14 57 -47 0 -29 -3 -76 -6
-104 -6 -50 -7 -52 -38 -50 l-31 1 0 -62 c0 -47 -4 -67 -18 -80 -18 -17 -19
-17 -41 10 -28 35 -116 191 -116 206 0 6 -5 11 -10 11 -9 0 2 -33 31 -95 18
-37 66 -114 158 -255 86 -130 163 -270 151 -270 -5 0 -26 11 -46 25 -20 14
-44 25 -53 25 -24 0 -71 31 -114 76 -33 34 -52 62 -112 163 -67 113 -68 114
-56 133 17 27 14 43 -4 28 -9 -7 -17 -11 -20 -9 -9 9 -43 98 -64 167 -15 47
-30 76 -43 83 -17 9 -18 13 -6 25 18 18 7 161 -17 217 -10 24 -11 36 -4 35 6
-2 13 2 16 8 2 7 -18 19 -44 29 -63 23 -204 124 -221 158 -7 15 -21 27 -31 27
-20 0 -61 32 -61 47 0 6 -7 16 -16 24 -8 7 -24 29 -35 48 -11 20 -35 65 -54
100 -20 35 -33 66 -31 68 8 9 116 -105 116 -122 0 -13 6 -15 30 -10 21 5 53
-1 103 -19 109 -38 307 -47 357 -16 29 18 -3 24 -106 21 -124 -3 -166 4 -162
27 2 10 14 18 26 20 13 2 21 9 19 15 -4 13 -39 10 -48 -4 -5 -9 -79 65 -79 81
0 12 52 -7 65 -24 11 -14 55 -28 55 -17 0 3 -23 17 -51 30 -61 30 -89 63 -89
107 0 19 -5 34 -10 34 -7 0 -8 13 -5 34 5 22 3 36 -5 41 -14 9 -30 -13 -23
-31 13 -34 -11 -31 -42 6 -75 89 -86 266 -25 392 16 35 39 74 51 88 l21 25 -7
-28 c-4 -22 1 -37 23 -65 67 -85 67 -86 42 -275 -18 -131 -20 -174 -12 -188 7
-10 12 -29 12 -42 0 -34 45 -71 135 -112 44 -20 113 -53 154 -73 41 -20 79
-36 84 -34 5 1 20 -4 33 -13 13 -8 24 -14 24 -12 0 1 -13 28 -30 60 -28 55
-71 171 -84 230 -4 16 -11 110 -16 210 -11 198 4 372 36 430 10 17 14 40 11
56 -3 16 -1 33 6 40 7 7 7 11 1 11 -6 0 -14 -3 -17 -7z m-407 -753 c0 -5 -2
-10 -4 -10 -3 0 -8 5 -11 10 -3 6 -1 10 4 10 6 0 11 -4 11 -10z m23 -68 c13
-14 47 -92 47 -108 0 -2 -12 1 -27 6 -24 8 -25 8 -9 -3 10 -6 31 -22 45 -35
l26 -23 -30 6 c-16 4 -49 15 -71 25 l-42 18 10 53 c16 89 21 95 51 61z m-116
-764 c-3 -7 -5 -2 -5 12 0 14 2 19 5 13 2 -7 2 -19 0 -25z m-112 -865 c-2 -16
-4 -35 -5 -43 -1 -10 -4 -9 -9 5 -5 11 -4 30 2 43 13 29 16 28 12 -5z m812
-28 c15 -13 23 -25 17 -25 -6 0 -24 11 -40 25 -16 14 -24 25 -17 25 7 0 25
-11 40 -25z m-780 -81 c-3 -3 -12 -4 -19 -1 -8 3 -5 6 6 6 11 1 17 -2 13 -5z
m-87 -28 c0 -3 -4 -8 -10 -11 -5 -3 -10 -1 -10 4 0 6 5 11 10 11 6 0 10 -2 10
-4z"/>
<path d="M3287 3163 c-4 -3 -7 -11 -7 -17 0 -6 5 -5 12 2 6 6 9 14 7 17 -3 3
-9 2 -12 -2z"/>
<path d="M5574 3045 c-15 -20 -24 -38 -20 -42 3 -4 -3 -17 -15 -29 -12 -12
-19 -28 -17 -35 2 -7 15 5 28 27 13 21 26 41 29 44 14 12 39 70 31 70 -5 0
-21 -16 -36 -35z"/>
<path d="M4538 2984 c-5 -4 -8 -21 -8 -38 1 -26 2 -28 11 -13 11 19 8 63 -3
51z"/>
<path d="M4160 2947 c0 -9 -8 -20 -17 -26 -13 -7 -15 -13 -7 -21 8 -8 15 -3
24 20 7 17 10 33 6 37 -3 3 -6 -1 -6 -10z"/>
<path d="M4380 2929 c0 -5 5 -7 10 -4 6 3 10 8 10 11 0 2 -4 4 -10 4 -5 0 -10
-5 -10 -11z"/>
<path d="M5497 2888 c-9 -31 -2 -33 11 -3 6 14 8 25 3 25 -5 0 -11 -10 -14
-22z"/>
<path d="M4125 2867 c-4 -10 -5 -21 -1 -24 10 -10 18 4 13 24 -4 17 -4 17 -12
0z"/>
<path d="M4121 2814 c0 -11 3 -14 6 -6 3 7 2 16 -1 19 -3 4 -6 -2 -5 -13z"/>
<path d="M4513 2785 c0 -22 2 -30 4 -17 2 12 2 30 0 40 -3 9 -5 -1 -4 -23z"/>
<path d="M3944 2786 c-15 -17 -36 -57 -32 -61 2 -2 14 12 27 31 24 34 27 53 5
30z"/>
<path d="M7112 2714 c18 -26 63 -83 101 -128 37 -44 75 -92 84 -106 10 -14 56
-61 103 -105 47 -44 102 -99 124 -122 l38 -42 -23 -32 c-13 -17 -36 -43 -50
-57 -24 -24 -59 -82 -59 -97 0 -3 6 -5 13 -5 7 0 23 20 35 45 12 25 29 48 37
51 8 4 15 12 15 19 0 6 10 24 23 38 27 33 19 37 162 -85 53 -45 231 -166 416
-282 34 -21 105 -59 158 -83 53 -25 99 -50 102 -55 3 -5 9 -9 13 -9 3 0 32
-11 63 -25 202 -90 583 -202 652 -191 24 4 24 4 -4 6 -82 4 -413 107 -602 186
-123 52 -286 134 -291 147 -2 4 -9 8 -16 8 -19 0 -164 81 -192 107 -14 13 -29
23 -34 23 -5 0 -15 6 -22 13 -7 7 -31 24 -53 37 -60 36 -219 159 -299 232 -18
17 -18 19 -3 36 28 30 20 49 -8 22 l-26 -24 -55 54 c-99 99 -151 154 -189 200
-20 25 -51 59 -69 77 -17 17 -58 68 -91 112 -32 45 -65 81 -73 81 -8 0 -1 -17
20 -46z"/>
<path d="M3887 2693 c-4 -3 -7 -13 -7 -22 0 -9 -16 -33 -35 -54 -19 -21 -35
-43 -35 -50 0 -10 30 20 78 78 4 6 8 20 8 33 0 25 0 25 -9 15z"/>
<path d="M4512 2665 c0 -16 2 -22 5 -12 2 9 2 23 0 30 -3 6 -5 -1 -5 -18z"/>
<path d="M4522 2605 c0 -16 2 -22 5 -12 2 9 2 23 0 30 -3 6 -5 -1 -5 -18z"/>
<path d="M4532 2530 c0 -19 4 -46 8 -60 8 -24 8 -24 8 5 0 17 -4 44 -8 60 l-8
30 0 -35z"/>
<path d="M7680 2447 c0 -8 7 -20 15 -27 8 -7 15 -19 15 -26 0 -8 4 -14 9 -14
5 0 35 -39 66 -86 31 -47 59 -83 62 -80 3 3 -15 33 -39 68 -24 35 -56 84 -71
109 -31 54 -57 80 -57 56z"/>
<path d="M742 2400 c0 -14 2 -19 5 -12 2 6 2 18 0 25 -3 6 -5 1 -5 -13z"/>
<path d="M4561 2390 c-1 -22 24 -97 53 -163 29 -65 106 -190 113 -184 2 3 -11
29 -30 58 -49 78 -66 113 -103 214 -18 50 -33 83 -33 75z"/>
<path d="M3202 2353 c-3 -60 -22 -143 -33 -143 -5 0 -8 -3 -8 -7 5 -28 -20
-78 -58 -120 -25 -26 -56 -65 -69 -85 -14 -21 -29 -38 -36 -38 -6 0 -9 -3 -6
-6 12 -11 67 27 113 78 40 46 45 49 39 25 -5 -21 -3 -26 8 -22 7 3 14 16 14
28 1 79 5 117 14 117 6 0 10 -7 10 -15 0 -8 5 -15 10 -15 6 0 10 11 10 25 0
14 5 25 10 25 6 0 10 -12 10 -27 l0 -28 15 30 c9 17 24 37 35 46 17 14 17 18
4 23 -12 5 -13 10 -4 26 18 34 39 110 30 110 -9 0 -20 -24 -26 -60 -9 -46 -39
-99 -56 -100 -15 0 -18 13 -21 88 -1 48 -4 68 -5 45z"/>
<path d="M4723 2320 c0 -36 2 -50 4 -32 2 17 2 47 0 65 -2 17 -4 3 -4 -33z"/>
<path d="M7672 2358 c-13 -13 -16 -38 -6 -38 8 0 33 32 34 43 0 11 -15 8 -28
-5z"/>
<path d="M2641 2274 c0 -11 3 -14 6 -6 3 7 2 16 -1 19 -3 4 -6 -2 -5 -13z"/>
<path d="M7327 2254 c-16 -9 -26 -18 -23 -21 7 -8 66 17 66 28 0 12 -10 11
-43 -7z"/>
<path d="M742 2230 c0 -19 2 -27 5 -17 2 9 2 25 0 35 -3 9 -5 1 -5 -18z"/>
<path d="M4726 2210 c10 -51 26 -74 18 -25 -4 22 -10 44 -15 50 -6 5 -7 -5 -3
-25z"/>
<path d="M7870 2188 c0 -8 89 -128 102 -138 3 -3 20 -23 37 -44 17 -21 31 -34
31 -29 0 6 -26 42 -57 79 -32 38 -70 85 -85 104 -15 19 -28 32 -28 28z"/>
<path d="M3008 2148 c9 -9 15 -9 24 0 9 9 7 12 -12 12 -19 0 -21 -3 -12 -12z"/>
<path d="M715 2134 c-22 -7 -41 -14 -41 -14 -9 -1 -22 -94 -15 -112 4 -13 11
-42 15 -65 5 -33 3 -41 -7 -37 -8 3 -14 -2 -14 -13 1 -90 -3 -105 -24 -100
-19 5 -19 4 -6 -11 8 -9 14 -31 14 -48 0 -25 -6 -33 -29 -42 -15 -6 -28 -18
-28 -27 0 -14 3 -13 18 5 l18 22 17 -25 c9 -14 17 -38 17 -54 0 -15 0 -57 1
-92 0 -35 1 -67 4 -70 2 -4 0 -13 -6 -21 -6 -11 -9 -8 -9 13 0 15 -5 27 -11
27 -8 0 -10 -13 -6 -36 4 -20 1 -46 -4 -56 -13 -24 -3 -72 13 -62 6 4 19 -4
30 -17 l19 -24 -12 25 c-6 14 -18 33 -27 43 -19 21 -4 22 25 2 13 -9 24 -11
28 -6 3 5 30 13 61 17 44 5 58 3 73 -10 18 -16 20 -16 44 6 21 19 27 37 35 95
4 40 5 76 1 80 -4 5 -3 53 1 109 5 56 6 152 4 215 -7 157 -5 231 6 244 19 23
-6 38 -52 31 -29 -4 -56 -2 -79 8 -29 12 -40 12 -74 0z m165 -355 c0 -26 -14
-31 -101 -36 -75 -4 -80 -3 -88 19 -14 36 5 50 63 46 50 -3 51 -3 49 24 l-2
28 40 -32 c21 -17 39 -39 39 -49z m-60 -325 c0 -8 -5 -12 -10 -9 -6 4 -8 11
-5 16 9 14 15 11 15 -7z"/>
<path d="M2475 2111 c-73 -39 -144 -85 -145 -94 0 -5 6 -5 12 0 7 4 26 8 41 9
46 4 167 65 167 85 0 28 -23 28 -75 0z"/>
<path d="M3200 2113 c0 -16 -3 -39 -6 -53 l-6 -25 16 22 c9 12 19 36 22 52 5
24 3 31 -10 31 -11 0 -16 -9 -16 -27z"/>
<path d="M2566 2077 c-15 -19 -26 -37 -26 -40 0 -3 -5 -18 -11 -34 -7 -15 -13
-41 -15 -58 -9 -66 -23 -69 -120 -25 -66 29 -169 54 -185 44 -5 -3 -9 -12 -9
-20 0 -8 -11 -19 -25 -26 -13 -6 -22 -15 -19 -19 3 -5 0 -9 -5 -9 -6 0 -11 5
-11 11 0 5 -5 7 -11 3 -7 -4 -8 -18 -4 -38 4 -17 8 -38 10 -46 7 -42 30 -110
37 -110 8 0 27 -39 33 -70 2 -8 4 -15 5 -15 1 0 3 -7 5 -15 2 -8 15 -46 30
-85 25 -67 55 -155 55 -164 0 -3 -6 1 -12 8 -7 6 -13 15 -13 19 -1 14 -36 60
-51 66 -28 11 -62 -12 -74 -49 -16 -48 -9 -163 10 -175 24 -15 -18 -53 -52
-48 -25 4 -29 0 -53 -61 -29 -72 -36 -79 -118 -122 -32 -16 -115 -68 -184
-115 -69 -47 -129 -84 -133 -82 -4 2 -39 39 -77 83 -67 78 -144 139 -210 169
-18 8 -33 21 -33 28 0 7 -7 2 -16 -10 -18 -26 -44 -29 -44 -6 0 29 -42 53 -92
54 -28 0 -48 5 -51 13 -2 6 -8 9 -12 5 -4 -4 -2 -15 5 -23 17 -20 33 -102 35
-180 1 -33 3 -95 5 -138 1 -43 1 -79 -1 -81 -2 -2 -25 -6 -51 -10 -40 -6 -47
-4 -51 11 -4 15 -5 15 -6 1 -1 -19 -51 -39 -79 -32 -30 8 -156 -21 -290 -66
l-122 -42 31 -36 c17 -19 38 -50 45 -68 18 -44 18 -143 -1 -168 -24 -32 -18
-43 31 -56 l45 -13 -42 -43 c-24 -24 -59 -51 -78 -60 -20 -9 -57 -34 -84 -56
-27 -21 -60 -41 -73 -44 -13 -3 -24 -12 -24 -20 0 -11 29 -14 156 -14 l155 0
37 35 c48 45 62 45 55 0 -6 -35 -5 -35 31 -35 29 0 52 12 115 60 43 33 82 60
86 60 4 0 20 11 36 24 15 13 33 26 39 28 6 2 8 11 4 21 -6 17 -8 17 -28 -2
-28 -25 -174 -94 -204 -96 -37 -1 -22 26 28 52 64 34 69 42 78 108 l7 59 88 4
c75 3 87 2 87 -12 0 -9 -8 -16 -20 -16 -17 0 -20 -7 -20 -50 0 -27 4 -50 10
-50 15 0 40 56 40 88 0 23 5 31 24 36 28 7 58 -2 50 -15 -3 -5 -16 -9 -30 -9
-13 0 -24 -4 -24 -10 0 -5 11 -10 25 -10 20 0 29 -8 40 -32 l14 -33 1 58 c0
31 3 57 8 57 4 0 7 14 7 32 0 26 5 33 25 38 21 5 26 14 31 50 3 25 2 54 -3 65
-6 13 -5 31 1 48 12 32 31 36 31 7 0 -16 6 -20 33 -19 30 2 30 2 5 6 -16 2
-28 9 -28 15 0 6 10 8 25 4 16 -4 25 -2 25 5 0 8 4 8 14 0 9 -8 16 -8 20 -2 8
12 36 3 36 -10 0 -5 -15 -10 -32 -10 -31 -2 -31 -2 -5 -6 22 -4 27 -10 27 -31
0 -15 3 -37 6 -49 5 -17 2 -23 -10 -23 -9 0 -16 -7 -16 -15 0 -9 -9 -15 -21
-15 -19 0 -21 -4 -14 -37 17 -87 22 -178 9 -198 -6 -11 -14 -55 -17 -97 l-5
-78 154 0 c137 0 154 2 154 17 0 21 32 93 41 93 4 0 11 -25 14 -55 8 -57 24
-75 26 -27 1 21 2 23 7 7 5 -19 26 86 38 198 4 30 11 47 20 47 8 0 11 -6 7
-17 -4 -11 -3 -14 6 -9 17 11 10 39 -11 42 -18 2 -38 -41 -38 -82 0 -27 -15
-32 -24 -9 -8 23 -26 18 -26 -7 -1 -23 -20 -51 -53 -77 -15 -12 -16 -11 -6 19
9 23 9 34 0 43 -14 14 -15 97 -1 97 6 0 10 -18 10 -40 0 -22 5 -40 10 -40 6 0
10 18 10 40 0 26 4 40 13 40 17 0 51 94 44 120 -3 11 -1 18 4 14 5 -3 10 3 11
13 2 30 4 37 22 77 9 22 14 46 12 53 -3 7 17 41 44 75 27 33 49 64 48 67 -1 3
1 13 4 21 3 8 12 35 19 59 14 48 94 139 103 118 2 -7 5 -2 5 11 1 29 31 29 31
0 0 -23 0 -23 23 3 13 13 26 30 28 36 2 6 24 26 49 45 25 20 44 40 43 46 -1 5
4 16 12 22 8 7 15 25 15 40 0 21 7 30 29 40 16 6 37 20 47 31 9 10 25 19 34
19 21 0 70 23 70 33 0 4 6 7 13 7 6 0 20 12 30 25 l18 25 -33 -6 -33 -6 33 31
c39 37 40 44 5 30 -14 -5 -32 -8 -39 -5 -7 3 -15 -2 -18 -10 -3 -8 -13 -14
-22 -14 -16 0 -16 1 0 18 9 11 33 25 54 31 21 7 42 22 48 34 5 12 19 22 31 23
12 1 29 8 37 17 9 9 25 19 36 22 11 3 20 11 20 16 0 5 14 9 31 9 17 0 28 -4
24 -10 -9 -14 -2 -13 59 14 71 31 136 84 136 109 0 15 -5 18 -22 14 -13 -4
-42 -9 -66 -13 -23 -4 -45 -11 -48 -15 -3 -5 -25 -9 -48 -9 -27 0 -48 -6 -56
-15 -7 -8 -18 -15 -24 -15 -15 0 -56 42 -56 57 0 6 -6 13 -14 16 -22 9 -36 73
-36 169 0 81 1 86 20 81 12 -3 20 0 20 7 0 6 -9 14 -20 17 -36 9 -20 83 41
196 25 46 18 48 -15 4z m-104 -206 c21 -8 23 -14 20 -51 l-4 -42 -18 30 c-10
16 -28 36 -40 45 -15 11 -18 16 -8 20 20 8 25 8 50 -2z m-213 -233 c6 -18 7
-28 2 -23 -10 12 -25 55 -18 55 3 0 10 -15 16 -32z m70 -329 c-12 -23 -43 -35
-35 -13 3 8 6 19 6 23 0 4 9 7 19 7 15 0 17 -4 10 -17z m-70 -53 c7 -8 11 -32
9 -53 -2 -31 -7 -39 -26 -41 -30 -5 -54 25 -46 58 11 48 40 64 63 36z m-285
-318 c-17 -58 -66 -148 -79 -148 -8 0 -15 6 -15 14 0 8 -11 23 -24 34 l-24 19
33 30 c19 17 44 35 56 38 13 4 29 14 37 21 19 20 24 17 16 -8z m-664 -339 c0
-5 -7 -9 -15 -9 -9 0 -15 9 -15 21 0 18 2 19 15 9 8 -7 15 -16 15 -21z m347
-49 c18 0 33 -4 33 -10 0 -5 -16 -10 -35 -10 -24 0 -35 -5 -35 -15 0 -10 10
-15 30 -15 20 0 30 -5 30 -15 0 -10 -10 -15 -30 -15 -20 0 -30 -5 -30 -15 0
-10 11 -15 35 -15 24 0 35 -5 35 -15 0 -12 -16 -15 -85 -15 -69 0 -85 3 -85
15 0 10 11 15 35 15 24 0 35 5 35 15 0 10 -10 15 -31 15 -38 0 -35 24 4 28 38
5 35 32 -3 32 -16 0 -30 5 -30 10 0 6 13 10 29 10 21 0 30 6 35 23 l7 22 11
-22 c8 -17 20 -23 45 -23z m-637 0 c7 0 10 7 6 15 -3 8 -1 15 4 15 6 0 10 -7
10 -15 0 -20 20 -19 36 3 13 16 13 16 14 0 0 -10 5 -18 10 -18 6 0 10 -10 9
-22 0 -13 -3 -17 -6 -10 -3 8 -27 12 -69 12 -41 0 -63 -4 -59 -10 3 -5 31 -10
61 -10 l54 0 -1 -32 c-1 -30 -2 -31 -8 -8 -6 21 -13 25 -46 25 -33 0 -40 -4
-46 -25 -6 -23 -7 -22 -8 8 -1 17 -5 32 -11 32 -5 0 -10 9 -10 20 0 11 5 20
10 20 6 0 10 8 10 18 1 16 1 16 14 0 7 -10 19 -18 26 -18z m274 24 c21 -8 20
-24 -1 -24 -9 0 -13 -3 -10 -7 4 -3 0 -14 -9 -24 -14 -16 -14 -20 2 -43 20
-32 11 -46 -15 -22 -18 16 -21 16 -43 2 -33 -22 -43 -8 -16 21 21 22 21 23 3
43 -21 23 -9 27 15 5 15 -14 19 -13 35 5 18 20 18 20 -33 20 l-52 0 0 -58 0
-58 67 0 c42 1 68 -3 70 -11 3 -8 -19 -11 -77 -11 -77 1 -81 3 -76 22 3 12 6
47 6 78 l0 57 58 4 c31 2 58 4 59 5 1 1 8 -1 17 -4z m-484 -39 c0 -19 5 -35
11 -35 6 0 8 9 4 20 -5 17 -2 20 20 20 14 0 24 4 20 10 -3 5 -12 7 -20 3 -8
-3 -15 0 -15 6 0 7 19 10 48 10 26 -1 37 -4 25 -6 -29 -5 -30 -23 -2 -23 16 0
19 -4 14 -20 -4 -12 -2 -20 6 -20 8 0 9 -4 0 -13 -8 -10 -7 -17 1 -25 9 -9 6
-12 -15 -12 -15 0 -27 -4 -27 -10 0 -5 9 -10 20 -10 11 0 20 -4 20 -10 0 -5
-20 -10 -44 -10 -25 0 -48 5 -51 10 -4 6 5 10 20 10 15 0 24 4 20 10 -3 6 -14
10 -25 10 -14 0 -17 5 -12 22 3 14 2 19 -6 14 -7 -4 -12 -17 -12 -29 0 -12 -9
-28 -20 -35 -19 -12 -20 -10 -20 68 0 73 2 80 20 80 16 0 20 -7 20 -35z m266
-105 c16 0 24 6 24 17 0 13 3 14 11 6 7 -7 9 -19 6 -27 -9 -22 -73 -22 -81 0
-5 14 -8 14 -28 0 -25 -18 -48 -21 -48 -7 0 5 11 12 25 15 15 4 30 18 37 34
l11 27 10 -32 c7 -25 16 -33 33 -33z m701 28 c-3 -8 -6 -5 -6 6 -1 11 2 17 5
13 3 -3 4 -12 1 -19z m-821 -177 c11 -55 -5 -85 -47 -89 -45 -4 -61 15 -57 65
3 41 24 58 71 58 23 0 28 -5 33 -34z m612 11 c17 -22 15 -67 -4 -86 -9 -9 -32
-16 -56 -16 -37 0 -40 2 -34 23 3 12 6 39 6 59 0 30 4 37 23 40 29 5 49 -1 65
-20z m173 15 c-1 -12 -15 -9 -19 4 -3 6 1 10 8 8 6 -3 11 -8 11 -12z m-961
-47 c0 -49 1 -50 30 -50 17 0 30 -4 30 -10 0 -5 -18 -10 -40 -10 l-40 0 0 60
c0 33 4 60 10 60 6 0 10 -22 10 -50z m875 10 c5 -8 11 -7 21 1 20 17 28 5 14
-21 -9 -18 -8 -25 6 -41 14 -15 14 -19 3 -19 -8 0 -20 5 -27 12 -9 9 -12 8
-12 -5 0 -12 -8 -16 -35 -15 -27 1 -35 6 -35 20 0 20 11 23 26 8 6 -6 13 -3
21 8 8 14 7 23 -3 37 -8 10 -14 13 -14 7 0 -7 -7 -12 -15 -12 -8 0 -15 7 -15
15 0 17 55 21 65 5z m165 -140 c-7 -32 -9 -32 -14 3 -2 12 14 40 20 35 1 -2
-1 -19 -6 -38z m-993 -46 c-3 -3 -12 -4 -19 -1 -8 3 -5 6 6 6 11 1 17 -2 13
-5z"/>
<path d="M770 540 c0 -5 5 -10 10 -10 6 0 10 5 10 10 0 6 -4 10 -10 10 -5 0
-10 -4 -10 -10z"/>
<path d="M840 510 c0 -5 5 -10 10 -10 6 0 10 5 10 10 0 6 -4 10 -10 10 -5 0
-10 -4 -10 -10z"/>
<path d="M870 510 c0 -5 5 -10 10 -10 6 0 10 5 10 10 0 6 -4 10 -10 10 -5 0
-10 -4 -10 -10z"/>
<path d="M770 500 c0 -5 5 -10 10 -10 6 0 10 5 10 10 0 6 -4 10 -10 10 -5 0
-10 -4 -10 -10z"/>
<path d="M840 474 c0 -8 5 -12 10 -9 6 4 8 11 5 16 -9 14 -15 11 -15 -7z"/>
<path d="M870 475 c0 -8 5 -15 10 -15 6 0 10 7 10 15 0 8 -4 15 -10 15 -5 0
-10 -7 -10 -15z"/>
<path d="M770 461 c0 -6 5 -13 10 -16 6 -3 10 1 10 9 0 9 -4 16 -10 16 -5 0
-10 -4 -10 -9z"/>
<path d="M876 285 c-29 -29 -17 -75 20 -75 17 0 25 7 30 27 12 45 -21 77 -50
48z"/>
<path d="M1480 250 c0 -29 5 -50 11 -50 51 0 70 73 23 90 -14 6 -27 10 -30 10
-2 0 -4 -22 -4 -50z"/>
<path d="M7058 2046 c-10 -7 -18 -18 -18 -25 0 -6 -7 -11 -15 -11 -8 0 -15 -7
-15 -16 0 -8 -4 -12 -10 -9 -5 3 -10 2 -10 -4 0 -5 -10 -21 -22 -34 -56 -61
-70 -75 -117 -122 -28 -27 -47 -51 -41 -53 5 -2 10 -13 10 -25 0 -38 14 -49
33 -27 9 11 24 20 33 20 21 0 95 65 113 99 7 14 18 31 25 36 16 13 56 92 56
109 0 8 4 16 9 18 5 2 13 15 16 31 6 22 4 27 -11 27 -11 0 -27 -7 -36 -14z"/>
<path d="M5600 1994 c0 -5 7 -18 15 -28 8 -11 15 -16 15 -10 0 5 -7 18 -15 28
-8 11 -15 16 -15 10z"/>
<path d="M430 1948 c-11 -12 -20 -26 -20 -32 0 -5 1 -7 3 -5 1 2 13 16 26 32
29 32 21 37 -9 5z"/>
<path d="M478 1963 c6 -2 18 -2 25 0 6 3 1 5 -13 5 -14 0 -19 -2 -12 -5z"/>
<path d="M2158 1963 c6 -2 18 -2 25 0 6 3 1 5 -13 5 -14 0 -19 -2 -12 -5z"/>
<path d="M3143 1948 c-13 -6 -23 -15 -23 -20 0 -5 14 -2 30 7 45 23 38 35 -7
13z"/>
<path d="M404 1842 c1 -36 8 -67 16 -75 10 -10 11 -9 5 2 -5 8 -12 42 -16 75
l-8 61 3 -63z"/>
<path d="M3971 1852 c-7 -20 -21 -55 -31 -77 -25 -55 -59 -185 -49 -185 5 0 9
6 9 13 0 8 7 28 16 46 9 17 13 38 10 46 -3 8 1 18 7 22 7 5 23 43 36 87 23 81
25 114 2 48z"/>
<path d="M3141 1854 c0 -11 3 -14 6 -6 3 7 2 16 -1 19 -3 4 -6 -2 -5 -13z"/>
<path d="M3006 1786 c-25 -53 -19 -66 9 -17 28 48 29 51 16 51 -5 0 -16 -15
-25 -34z"/>
<path d="M2097 1738 c-3 -10 0 -18 8 -18 7 0 15 8 17 18 3 11 0 19 -8 19 -7 0
-15 -9 -17 -19z"/>
<path d="M560 1736 c0 -8 5 -18 10 -21 6 -3 10 1 10 9 0 8 -4 18 -10 21 -5 3
-10 -1 -10 -9z"/>
<path d="M7430 1712 c0 -6 5 -14 10 -17 6 -3 10 -15 10 -26 0 -10 5 -19 11
-19 6 0 9 -6 7 -12 -3 -7 5 -21 18 -30 27 -22 35 -23 28 -3 -10 25 25 30 47 6
12 -12 32 -21 49 -21 42 0 37 -14 -11 -33 -40 -16 -42 -16 -61 6 l-19 22 6
-31 6 -31 -128 -63 c-157 -76 -154 -75 -230 -100 -73 -24 -133 -51 -133 -61 0
-3 -13 -9 -29 -12 -16 -3 -35 -12 -42 -19 -17 -16 -111 -62 -121 -60 -5 1 -8
-2 -8 -8 0 -14 32 -12 55 4 11 7 47 21 80 31 33 11 82 32 108 47 26 15 50 28
53 28 3 0 19 9 34 20 16 11 61 34 102 51 91 38 120 51 136 62 23 17 146 57
153 49 3 -4 33 -58 65 -120 32 -62 70 -125 84 -140 14 -15 31 -39 39 -53 7
-14 24 -39 38 -55 14 -16 30 -41 35 -56 11 -31 33 -39 23 -9 -3 11 -26 50 -50
86 -25 37 -45 72 -45 78 0 7 -14 26 -30 44 -17 18 -30 34 -30 36 0 2 -25 50
-55 106 -53 99 -59 121 -31 121 7 0 26 10 41 22 46 36 177 34 341 -3 71 -17
145 -33 164 -35 19 -3 49 -12 67 -20 17 -8 38 -14 47 -14 62 0 642 -176 726
-221 38 -20 210 -99 216 -99 2 0 4 4 4 8 0 5 -55 33 -122 62 -68 29 -150 65
-183 80 -62 28 -144 56 -325 110 -58 17 -132 39 -165 50 -72 22 -398 95 -515
115 -22 4 -40 14 -45 27 -8 17 -21 21 -75 23 -244 10 -320 22 -320 50 0 7 -7
18 -15 25 -9 8 -15 9 -15 2z"/>
<path d="M449 1693 c6 -13 20 -23 31 -23 10 0 26 -7 35 -16 13 -13 20 -14 38
-5 21 11 21 11 1 6 -12 -3 -26 1 -34 10 -7 8 -19 15 -28 15 -8 0 -24 8 -35 18
-19 16 -20 16 -8 -5z"/>
<path d="M7257 1639 c-18 -41 -46 -103 -60 -139 -24 -58 -32 -67 -70 -82 -23
-10 -55 -18 -72 -19 -43 -3 -105 26 -105 49 0 10 -11 29 -25 42 -33 31 -32 18
5 -37 17 -24 30 -48 30 -53 0 -5 9 -12 20 -15 11 -3 20 -11 20 -16 0 -14 66
-11 108 7 38 14 82 54 82 73 0 5 6 14 14 20 8 7 18 25 21 41 4 16 15 40 26 54
11 14 18 28 17 33 -3 14 14 77 25 91 5 7 7 15 4 18 -3 3 -21 -27 -40 -67z"/>
<path d="M1083 1605 c0 -27 2 -38 4 -22 2 15 2 37 0 50 -2 12 -4 0 -4 -28z"/>
<path d="M604 1595 c0 -27 4 -35 18 -35 10 0 18 5 18 10 0 6 -4 10 -10 10 -5
0 -10 11 -10 25 0 14 -4 25 -8 25 -4 0 -8 -16 -8 -35z"/>
<path d="M4218 1610 l-23 -20 27 11 c21 9 31 9 43 -1 10 -8 15 -9 15 -2 0 6
-9 16 -19 22 -15 7 -24 5 -43 -10z"/>
<path d="M6020 1618 c0 -6 -9 -30 -19 -52 -11 -23 -31 -72 -45 -111 -21 -59
-25 -65 -25 -37 -1 17 -6 32 -11 32 -17 0 -11 -285 6 -318 l14 -27 0 25 c0 14
-5 43 -10 65 -11 47 1 66 19 31 33 -61 226 -78 247 -21 10 24 -4 30 -25 11
-28 -26 -120 -32 -163 -12 -46 22 -63 57 -62 121 2 54 56 226 81 256 15 18 17
49 3 49 -5 0 -10 -5 -10 -12z"/>
<path d="M397 1603 c-4 -3 -7 -11 -7 -17 0 -6 5 -5 12 2 6 6 9 14 7 17 -3 3
-9 2 -12 -2z"/>
<path d="M2055 1592 c-6 -4 -11 -18 -12 -32 -1 -14 -4 -45 -7 -70 -11 -87 -13
-155 -6 -180 6 -24 7 -24 18 10 7 20 14 83 17 140 2 58 5 105 5 105 1 0 3 8 5
18 3 18 -3 21 -20 9z"/>
<path d="M230 1570 c0 -5 5 -10 11 -10 5 0 7 5 4 10 -3 6 -8 10 -11 10 -2 0
-4 -4 -4 -10z"/>
<path d="M3879 1553 c-1 -16 -3 -43 -5 -62 -5 -39 2 -39 10 -1 2 14 8 40 12
58 4 21 3 32 -5 32 -6 0 -12 -12 -12 -27z"/>
<path d="M4140 1559 l-25 -20 33 16 c17 8 32 18 32 20 0 10 -16 4 -40 -16z"/>
<path d="M4273 1480 c0 -71 1 -78 8 -42 4 23 4 61 0 85 -6 35 -8 27 -8 -43z"/>
<path d="M357 1543 c-11 -10 -8 -71 3 -78 6 -4 7 6 3 26 -5 25 -2 35 12 46 15
10 16 13 4 13 -9 0 -19 -3 -22 -7z"/>
<path d="M4077 1521 c-16 -10 -66 -55 -112 -100 -46 -44 -87 -81 -90 -81 -4 0
-5 22 -3 50 7 66 -7 55 -15 -12 -4 -29 -16 -65 -27 -80 -25 -34 -25 -38 0 -38
12 0 24 10 29 23 8 21 129 145 221 226 40 35 38 40 -3 12z"/>
<path d="M1072 1505 c0 -16 2 -22 5 -12 2 9 2 23 0 30 -3 6 -5 -1 -5 -18z"/>
<path d="M388 1468 c3 -21 1 -29 -7 -24 -8 5 -8 1 1 -18 6 -14 15 -26 20 -26
4 0 7 -3 6 -7 -3 -13 56 -127 70 -136 6 -4 27 -31 46 -60 18 -29 42 -62 53
-74 38 -43 33 -23 -10 37 -128 183 -136 195 -124 202 8 5 6 8 -6 8 -10 0 -16
4 -13 9 3 5 -1 22 -9 37 -8 16 -15 39 -15 51 0 12 -4 24 -8 27 -5 3 -6 -9 -4
-26z"/>
<path d="M9197 1433 c18 -2 50 -2 70 0 21 2 7 4 -32 4 -38 0 -55 -2 -38 -4z"/>
<path d="M6395 1410 c3 -5 8 -10 11 -10 2 0 4 5 4 10 0 6 -5 10 -11 10 -5 0
-7 -4 -4 -10z"/>
<path d="M4262 1368 c-1 -14 -5 -35 -8 -45 -5 -14 -4 -15 5 -7 7 7 11 26 8 45
-3 28 -4 29 -5 7z"/>
<path d="M3690 1340 c-7 -17 -10 -33 -8 -36 3 -3 11 9 17 27 14 42 7 49 -9 9z"/>
<path d="M7990 1344 c74 -7 178 -20 230 -29 52 -8 109 -18 125 -20 17 -3 41
-8 55 -11 14 -3 39 -8 55 -11 17 -3 55 -11 85 -20 30 -8 82 -21 115 -28 33 -8
128 -34 212 -58 84 -24 150 -40 147 -36 -9 15 -321 104 -474 134 -19 4 -39 11
-45 15 -5 4 -28 10 -50 14 -22 3 -78 13 -125 21 -122 22 -335 45 -405 44 -42
-1 -20 -5 75 -15z"/>
<path d="M1041 1277 c-7 -46 -9 -82 -3 -98 5 -13 7 -29 5 -35 -2 -6 2 -14 10
-17 10 -4 12 3 9 24 -3 17 0 29 7 29 6 0 11 -5 11 -12 0 -6 3 -9 6 -5 3 3 -4
20 -16 37 -20 27 -22 39 -16 91 10 83 1 74 -13 -14z"/>
<path d="M2640 1299 c0 -11 5 -17 10 -14 6 3 10 13 10 21 0 8 -4 14 -10 14 -5
0 -10 -9 -10 -21z"/>
<path d="M4259 1289 c-1 -14 -2 -23 -14 -69 -4 -14 -7 -60 -7 -102 0 -43 -5
-78 -10 -78 -5 0 -7 -4 -4 -8 2 -4 7 -101 10 -215 3 -115 8 -212 11 -218 4 -5
11 -9 17 -9 8 0 8 19 2 63 -11 85 -13 475 -2 566 5 40 6 76 3 79 -3 3 -5 -1
-6 -9z"/>
<path d="M6533 1179 c-40 -27 -130 -80 -200 -117 -124 -66 -128 -67 -146 -49
-12 12 -30 17 -50 16 -45 -4 -70 13 -106 71 -17 27 -34 50 -39 50 -14 0 -32
-23 -32 -43 0 -10 -4 -16 -8 -13 -13 8 4 -126 20 -164 30 -70 91 -98 128 -58
11 12 27 30 35 39 8 9 15 21 15 27 0 18 17 14 24 -4 5 -12 14 -15 39 -10 17 4
58 7 90 7 32 0 57 4 57 10 0 6 -6 7 -12 3 -9 -5 -9 -2 1 9 7 9 19 17 27 17 7
0 15 4 18 9 4 5 -4 7 -16 4 -13 -2 22 20 77 49 75 40 101 59 103 75 2 13 21
33 48 50 32 20 44 34 42 48 -5 34 -39 26 -115 -26z"/>
<path d="M3710 1195 c-7 -9 -8 -15 -2 -15 5 0 12 7 16 15 3 8 4 15 2 15 -2 0
-9 -7 -16 -15z"/>
<path d="M214 1164 c22 -19 44 -34 50 -34 6 1 2 8 -10 18 -11 9 -21 22 -22 27
-1 6 -15 13 -30 17 -25 6 -25 5 12 -28z"/>
<path d="M491 1174 c0 -11 3 -14 6 -6 3 7 2 16 -1 19 -3 4 -6 -2 -5 -13z"/>
<path d="M80 1166 c0 -2 8 -10 18 -17 15 -13 16 -12 3 4 -13 16 -21 21 -21 13z"/>
<path d="M1008 1133 c7 -3 16 -2 19 1 4 3 -2 6 -13 5 -11 0 -14 -3 -6 -6z"/>
<path d="M7449 1122 c61 -43 360 -141 394 -129 7 3 -1 8 -18 12 -77 18 -211
58 -222 67 -6 5 -24 13 -40 17 -15 5 -53 18 -83 30 -45 17 -51 18 -31 3z"/>
<path d="M502 1110 c0 -14 2 -19 5 -12 2 6 2 18 0 25 -3 6 -5 1 -5 -13z"/>
<path d="M2505 1109 c-22 -12 -44 -25 -49 -30 -13 -12 -29 -11 -21 1 3 6 2 10
-4 10 -13 0 -87 -80 -84 -91 2 -5 -1 -8 -7 -6 -14 3 -89 -82 -96 -109 -3 -13
-27 -42 -53 -65 -25 -23 -45 -46 -43 -51 1 -4 -2 -7 -6 -6 -4 2 -19 -9 -33
-24 -41 -45 -107 -122 -131 -152 -27 -36 -119 -264 -108 -271 7 -4 40 69 40
88 0 18 66 146 94 182 49 63 76 91 76 77 0 -7 30 16 68 52 102 98 134 126 172
155 19 14 39 32 43 38 4 7 15 13 22 13 8 0 15 4 15 10 0 5 19 22 43 39 23 16
54 41 69 55 15 14 31 26 36 26 11 0 20 50 14 68 -5 16 -11 15 -57 -9z m-75
-47 c0 -5 -15 -19 -32 -32 l-33 -24 25 31 c25 31 40 41 40 25z"/>
<path d="M640 1110 c0 -6 7 -10 15 -10 8 0 15 2 15 4 0 2 -7 6 -15 10 -8 3
-15 1 -15 -4z"/>
<path d="M9084 1106 c11 -9 24 -16 30 -16 12 0 7 5 -24 19 -24 11 -24 11 -6
-3z"/>
<path d="M9300 1111 c0 -10 30 -24 37 -17 3 2 -5 9 -16 16 -12 6 -21 7 -21 1z"/>
<path d="M448 1073 c6 -2 18 -2 25 0 6 3 1 5 -13 5 -14 0 -19 -2 -12 -5z"/>
<path d="M0 698 c0 -206 3 -378 7 -381 3 -4 12 -2 20 5 7 6 37 23 65 38 47 25
52 32 69 85 13 42 31 71 63 104 25 26 46 52 46 59 0 7 -11 35 -25 63 -14 27
-23 55 -19 60 3 6 -3 24 -15 40 -11 15 -21 31 -21 33 0 3 -17 31 -37 62 -21
31 -42 64 -48 73 -5 9 -12 18 -16 21 -3 3 -15 21 -27 41 -12 19 -30 44 -42 54
l-20 18 0 -375z"/>
<path d="M9200 1060 c8 -5 22 -9 30 -9 10 0 8 3 -5 9 -27 12 -43 12 -25 0z"/>
<path d="M683 1043 c9 -2 23 -2 30 0 6 3 -1 5 -18 5 -16 0 -22 -2 -12 -5z"/>
<path d="M4970 1015 c0 -15 -6 -17 -43 -12 -36 5 -43 3 -44 -12 -1 -13 5 -16
25 -13 15 2 68 -12 121 -33 52 -19 96 -34 98 -32 2 3 -25 15 -59 28 -35 12
-65 26 -68 29 -3 4 -12 10 -20 13 -8 3 1 6 20 7 19 1 28 4 20 7 -8 3 -23 12
-32 21 -16 14 -18 13 -18 -3z"/>
<path d="M6500 1020 c-12 -8 -10 -10 8 -10 13 0 20 4 17 10 -7 12 -6 12 -25 0z"/>
<path d="M5071 976 c20 -8 51 -22 69 -31 27 -14 34 -15 42 -3 8 10 9 10 5 -2
-2 -10 12 -23 41 -38 25 -12 47 -21 49 -18 3 3 -15 15 -39 27 -36 18 -40 23
-24 29 15 5 8 10 -32 23 -29 10 -73 20 -99 22 l-48 5 36 -14z"/>
<path d="M4551 944 c0 -11 3 -14 6 -6 3 7 2 16 -1 19 -3 4 -6 -2 -5 -13z"/>
<path d="M5017 923 c-16 -15 -5 -32 35 -56 24 -14 46 -23 50 -20 18 10 6 34
-29 58 -40 27 -46 29 -56 18z"/>
<path d="M5160 896 c28 -17 50 -21 35 -7 -6 5 -21 12 -35 15 l-25 7 25 -15z"/>
<path d="M3534 741 c-51 -152 -50 -145 -27 -132 10 5 29 20 43 33 14 13 53 43
88 67 34 24 62 47 62 51 0 5 -16 17 -35 28 -19 12 -37 32 -40 45 -5 17 -14 25
-29 25 -20 0 -27 -15 -62 -117z"/>
<path d="M5116 804 c-10 -27 -7 -52 9 -58 17 -6 35 22 35 53 0 25 -35 29 -44
5z"/>
<path d="M3295 775 c-84 -30 -297 -132 -306 -147 -10 -16 1 -38 18 -38 9 0 47
16 85 35 77 39 198 90 267 111 49 14 65 32 49 51 -15 18 -32 16 -113 -12z"/>
<path d="M3495 769 c-4 -6 -5 -12 -2 -15 2 -3 7 2 10 11 7 17 1 20 -8 4z"/>
<path d="M1970 755 c0 -8 2 -15 4 -15 2 0 6 7 10 15 3 8 1 15 -4 15 -6 0 -10
-7 -10 -15z"/>
<path d="M6056 744 c-18 -18 -20 -24 -6 -24 5 0 14 9 20 20 13 24 7 26 -14 4z"/>
<path d="M740 740 c-9 -6 -10 -10 -3 -10 6 0 15 5 18 10 8 12 4 12 -15 0z"/>
<path d="M335 730 c-3 -5 -1 -10 4 -10 6 0 11 5 11 10 0 6 -2 10 -4 10 -3 0
-8 -4 -11 -10z"/>
<path d="M2200 618 c-109 -113 -161 -175 -115 -138 73 60 260 268 233 259 -2
0 -55 -55 -118 -121z"/>
<path d="M366 685 c24 -39 24 -40 24 -28 0 6 -9 21 -21 34 l-20 24 17 -30z"/>
<path d="M3447 632 c-45 -133 -148 -566 -146 -617 0 -20 0 -20 9 0 5 11 25 96
45 190 42 195 89 385 111 451 8 25 14 48 11 50 -2 2 -15 -31 -30 -74z"/>
<path d="M6012 683 c-12 -17 -22 -36 -22 -41 0 -6 -13 -20 -30 -32 -16 -12
-30 -25 -30 -30 0 -11 186 -150 201 -150 6 0 47 -35 90 -77 44 -42 79 -70 79
-62 0 16 -53 70 -112 114 -51 37 -48 49 5 20 23 -13 67 -33 97 -45 30 -12 64
-30 76 -41 24 -22 42 -26 24 -4 -10 12 -9 15 6 15 11 0 26 -5 34 -10 13 -9 13
-12 -4 -25 -17 -13 -15 -17 39 -75 32 -33 60 -58 62 -56 2 2 -4 20 -15 40 -11
19 -22 33 -26 29 -3 -3 -15 2 -27 13 -15 13 -19 26 -15 46 6 31 -22 58 -59 58
-12 0 -41 17 -66 38 -38 32 -42 34 -27 10 l18 -27 -38 16 c-20 8 -54 24 -74
34 -21 11 -47 19 -59 19 -17 0 -156 75 -178 96 -6 6 38 84 62 111 10 12 17 27
15 34 -2 7 -13 0 -26 -18z"/>
<path d="M3350 630 c-19 -11 -43 -19 -52 -20 -10 0 -18 -5 -18 -10 0 -7 -20
-10 -50 -9 -92 4 -91 -46 0 -53 40 -3 45 0 48 19 2 14 18 27 51 42 26 11 54
27 61 36 17 20 3 18 -40 -5z"/>
<path d="M3125 541 c2 -11 1 -20 -3 -20 -4 1 -14 1 -22 0 -12 -1 -11 -4 3 -12
10 -6 14 -15 10 -22 -4 -6 -8 -27 -9 -47 -1 -19 -6 -54 -9 -77 -5 -30 -4 -43
4 -43 14 0 14 -27 0 -32 -9 -3 -9 -9 0 -25 16 -31 14 -61 -6 -72 -16 -8 -18
-21 -15 -100 3 -89 4 -91 28 -91 l24 0 2 123 c2 171 2 168 21 178 12 7 20 5
29 -11 15 -23 31 -26 47 -6 9 11 6 17 -19 27 -16 8 -30 20 -30 26 0 7 -4 13
-10 13 -5 0 -10 -4 -10 -10 0 -5 -4 -10 -10 -10 -5 0 -10 11 -10 24 0 19 4 22
24 19 18 -4 26 0 31 17 9 28 -12 52 -38 44 -17 -5 -19 -3 -15 20 3 14 1 27 -4
28 -6 2 -5 14 1 30 7 20 7 29 -4 38 -12 10 -13 8 -10 -9z"/>
<path d="M3755 521 c-10 -63 4 -246 27 -331 23 -89 40 -160 41 -177 0 -10 39
-13 160 -13 l160 0 -47 53 c-68 75 -79 89 -98 118 -9 14 -23 32 -30 40 -49 52
-141 200 -178 288 l-28 64 -7 -42z"/>
<path d="M4260 543 c0 -5 7 -26 16 -48 15 -39 15 -39 9 -6 -3 18 -5 40 -5 47
0 8 -4 14 -10 14 -5 0 -10 -3 -10 -7z"/>
<path d="M294 503 c2 -16 5 -37 6 -48 2 -14 4 -11 9 10 8 34 3 65 -11 65 -5 0
-7 -12 -4 -27z"/>
<path d="M1400 520 c0 -5 5 -10 10 -10 6 0 10 5 10 10 0 6 -4 10 -10 10 -5 0
-10 -4 -10 -10z"/>
<path d="M346 495 c-7 -19 3 -47 15 -39 5 3 9 14 9 24 0 24 -16 34 -24 15z"/>
<path d="M1357 503 c-13 -12 -7 -43 7 -43 10 0 13 8 11 21 -5 26 -9 31 -18 22z"/>
<path d="M3266 502 c-3 -6 -1 -14 5 -17 15 -10 25 3 12 16 -7 7 -13 7 -17 1z"/>
<path d="M4787 463 c2 -26 5 -58 7 -70 2 -14 -1 -20 -8 -15 -23 14 -45 12 -39
-4 3 -9 0 -19 -7 -24 -9 -6 -9 -13 -1 -28 12 -22 15 -192 4 -255 -7 -43 -26
-56 -54 -39 -10 7 -27 12 -36 11 -24 -1 56 -38 83 -39 19 0 22 7 27 68 4 37 7
84 7 104 0 27 6 41 20 50 11 7 20 21 20 30 0 10 3 18 6 18 3 0 41 -18 85 -41
75 -39 99 -43 99 -14 0 18 -182 107 -211 103 -19 -2 -24 2 -26 24 -1 15 2 30
8 33 5 4 9 -1 9 -9 0 -10 9 -16 25 -16 24 0 95 -33 137 -62 14 -10 20 -10 29
-1 19 19 -13 48 -96 87 l-72 34 0 42 c0 23 -5 46 -11 52 -6 6 -8 -6 -5 -39z"/>
<path d="M1398 493 c7 -3 16 -2 19 1 4 3 -2 6 -13 5 -11 0 -14 -3 -6 -6z"/>
<path d="M1438 493 c7 -3 16 -2 19 1 4 3 -2 6 -13 5 -11 0 -14 -3 -6 -6z"/>
<path d="M4820 500 c-1 -3 -4 -25 -5 -50 -2 -37 -1 -41 7 -20 8 21 6 85 -2 70z"/>
<path d="M1390 469 c0 -12 57 -12 64 0 3 5 -10 9 -29 9 -19 0 -35 -4 -35 -9z"/>
<path d="M1412 438 c7 -19 38 -22 38 -4 0 10 -9 16 -21 16 -12 0 -19 -5 -17
-12z"/>
<path d="M2028 436 c-59 -61 -98 -106 -91 -106 8 0 34 26 92 93 25 27 24 39
-1 13z"/>
<path d="M4290 446 c0 -11 40 -76 47 -76 2 0 3 11 1 24 -1 13 3 31 11 40 7 9
10 16 6 16 -4 0 -14 -8 -21 -17 -13 -17 -15 -17 -29 1 -8 11 -15 16 -15 12z"/>
<path d="M1360 425 c0 -9 9 -15 21 -15 18 0 19 2 9 15 -7 8 -16 15 -21 15 -5
0 -9 -7 -9 -15z"/>
<path d="M5490 426 c0 -2 7 -7 16 -10 8 -3 12 -2 9 4 -6 10 -25 14 -25 6z"/>
<path d="M300 404 c0 -8 5 -12 10 -9 6 4 8 11 5 16 -9 14 -15 11 -15 -7z"/>
<path d="M350 404 c0 -8 5 -12 10 -9 6 3 10 10 10 16 0 5 -4 9 -10 9 -5 0 -10
-7 -10 -16z"/>
<path d="M5595 375 c22 -14 59 -33 82 -42 24 -10 43 -21 43 -25 0 -4 -17 -9
-37 -11 -32 -3 -30 -4 13 -5 41 -2 55 -7 66 -24 12 -18 15 -19 21 -6 7 19 -90
89 -165 119 -65 25 -72 24 -23 -6z"/>
<path d="M352 350 c0 -19 2 -27 5 -17 2 9 2 25 0 35 -3 9 -5 1 -5 -18z"/>
<path d="M127 359 c-9 -6 -15 -14 -12 -20 3 -5 -1 -6 -9 -3 -19 7 -106 -52
-106 -71 0 -8 5 -15 10 -15 7 0 7 -6 1 -18 -14 -26 -2 -39 44 -46 37 -6 148
13 162 28 4 3 -5 19 -20 34 -15 15 -30 42 -33 60 -4 18 -10 32 -15 32 -5 0 -6
7 -3 15 7 18 5 18 -19 4z"/>
<path d="M301 344 c-1 -45 25 -64 90 -64 33 0 63 -6 75 -15 24 -18 34 -19 34
-1 0 23 -20 31 -100 36 l-75 5 -12 35 -12 35 0 -31z"/>
<path d="M4652 325 c0 -16 2 -22 5 -12 2 9 2 23 0 30 -3 6 -5 -1 -5 -18z"/>
<path d="M4330 286 c0 -8 5 -18 10 -21 6 -3 10 3 10 14 0 12 -4 21 -10 21 -5
0 -10 -6 -10 -14z"/>
<path d="M1286 275 c4 -8 8 -15 10 -15 2 0 4 7 4 15 0 8 -4 15 -10 15 -5 0 -7
-7 -4 -15z"/>
<path d="M356 261 c-3 -5 1 -12 10 -15 27 -11 37 -7 24 9 -14 17 -26 19 -34 6z"/>
<path d="M5815 250 c-3 -4 -6 -20 -7 -34 -1 -14 -5 -26 -8 -26 -8 0 -6 -97 3
-106 4 -4 7 7 7 25 0 24 6 34 23 40 19 8 20 10 5 16 -22 9 -23 33 -3 62 13 18
13 22 0 27 -8 3 -17 1 -20 -4z"/>
<path d="M4341 188 c0 -31 -10 -85 -21 -120 -11 -34 -20 -64 -20 -65 0 -2 9
-3 20 -3 18 0 20 7 20 56 0 30 3 53 8 51 4 -3 6 18 4 46 -4 82 -9 97 -11 35z"/>
<path d="M5671 236 c8 -8 98 -56 104 -56 17 0 -11 22 -52 40 -43 19 -61 25
-52 16z"/>
<path d="M1286 221 c-11 -17 -15 -171 -5 -171 5 0 9 31 9 68 0 37 4 72 10 78
5 5 5 15 1 23 -6 9 -11 10 -15 2z"/>
<path d="M5887 129 c7 -7 15 -10 18 -7 3 3 -2 9 -12 12 -14 6 -15 5 -6 -5z"/>
<path d="M6641 63 c23 -29 61 -63 71 -63 14 0 -9 37 -38 59 -32 25 -52 28 -33
4z"/>
</g>
</svg>
